<svg width="1122" height="492" viewBox="0 0 1122 492" fill="none" xmlns="http://www.w3.org/2000/svg">
<path d="M885.37 209.3C885.37 208.98 885.63 208.73 885.94 208.73C886.26 208.73 886.52 208.98 886.52 209.3C886.52 209.61 886.26 209.87 885.94 209.87C885.63 209.87 885.37 209.61 885.37 209.3Z" fill="white"/>
<path d="M885.37 188.43C885.37 188.12 885.63 187.86 885.94 187.86C886.26 187.86 886.52 188.12 886.52 188.43C886.52 188.74 886.26 189 885.94 189C885.63 189 885.37 188.74 885.37 188.43Z" fill="white"/>
<path d="M885.37 125.81C885.37 125.49 885.63 125.24 885.94 125.24C886.26 125.24 886.52 125.49 886.52 125.81C886.52 126.12 886.26 126.38 885.94 126.38C885.63 126.38 885.37 126.12 885.37 125.81Z" fill="white"/>
<path d="M885.37 104.94C885.37 104.63 885.63 104.37 885.94 104.37C886.26 104.37 886.52 104.63 886.52 104.94C886.52 105.25 886.26 105.51 885.94 105.51C885.63 105.51 885.37 105.25 885.37 104.94Z" fill="white"/>
<path d="M885.37 84.07C885.37 83.75 885.63 83.49 885.94 83.49C886.26 83.49 886.52 83.75 886.52 84.07C886.52 84.38 886.26 84.64 885.94 84.64C885.63 84.64 885.37 84.38 885.37 84.07Z" fill="white"/>
<path d="M865.76 146.68C865.76 146.37 866.01 146.11 866.32 146.11C866.64 146.11 866.89 146.37 866.89 146.68C866.89 146.99 866.64 147.25 866.32 147.25C866.01 147.25 865.76 146.99 865.76 146.68Z" fill="white"/>
<path d="M865.76 125.81C865.76 125.49 866.01 125.24 866.32 125.24C866.64 125.24 866.89 125.49 866.89 125.81C866.89 126.12 866.64 126.38 866.32 126.38C866.01 126.38 865.76 126.12 865.76 125.81Z" fill="white"/>
<path d="M865.76 84.07C865.76 83.75 866.01 83.5 866.32 83.5C866.64 83.5 866.89 83.75 866.89 84.07C866.89 84.38 866.64 84.64 866.32 84.64C866.01 84.64 865.76 84.38 865.76 84.07Z" fill="white"/>
<path d="M865.76 63.19C865.76 62.87 866.01 62.62 866.32 62.62C866.64 62.62 866.89 62.87 866.89 63.19C866.89 63.5 866.64 63.76 866.32 63.76C866.01 63.76 865.76 63.5 865.76 63.19Z" fill="white"/>
<path d="M846.15 209.3C846.15 208.99 846.41 208.73 846.72 208.73C847.04 208.73 847.29 208.99 847.29 209.3C847.29 209.61 847.04 209.87 846.72 209.87C846.41 209.87 846.15 209.61 846.15 209.3Z" fill="white"/>
<path d="M846.15 188.43C846.15 188.12 846.41 187.86 846.72 187.86C847.04 187.86 847.29 188.12 847.29 188.43C847.29 188.75 847.04 189 846.72 189C846.41 189 846.15 188.75 846.15 188.43Z" fill="white"/>
<path d="M846.15 167.56C846.15 167.24 846.41 166.99 846.72 166.99C847.04 166.99 847.29 167.24 847.29 167.56C847.29 167.87 847.04 168.13 846.72 168.13C846.41 168.13 846.15 167.87 846.15 167.56Z" fill="white"/>
<path d="M846.15 125.81C846.15 125.5 846.41 125.24 846.72 125.24C847.04 125.24 847.29 125.5 847.29 125.81C847.29 126.12 847.04 126.38 846.72 126.38C846.41 126.38 846.15 126.12 846.15 125.81Z" fill="white"/>
<path d="M846.15 104.94C846.15 104.63 846.41 104.37 846.72 104.37C847.04 104.37 847.29 104.63 847.29 104.94C847.29 105.25 847.04 105.51 846.72 105.51C846.41 105.51 846.15 105.25 846.15 104.94Z" fill="white"/>
<path d="M846.15 84.07C846.15 83.75 846.41 83.5 846.72 83.5C847.04 83.5 847.29 83.75 847.29 84.07C847.29 84.38 847.04 84.63 846.72 84.63C846.41 84.63 846.15 84.38 846.15 84.07Z" fill="white"/>
<path d="M846.15 63.19C846.15 62.87 846.41 62.62 846.72 62.62C847.04 62.62 847.29 62.87 847.29 63.19C847.29 63.5 847.04 63.76 846.72 63.76C846.41 63.76 846.15 63.5 846.15 63.19Z" fill="white"/>
<path d="M826.54 188.43C826.54 188.12 826.8 187.86 827.12 187.86C827.43 187.86 827.69 188.12 827.69 188.43C827.69 188.75 827.43 189 827.12 189C826.8 189 826.54 188.75 826.54 188.43Z" fill="white"/>
<path d="M826.54 167.56C826.54 167.24 826.8 166.99 827.12 166.99C827.43 166.99 827.69 167.24 827.69 167.56C827.69 167.87 827.43 168.13 827.12 168.13C826.8 168.13 826.54 167.87 826.54 167.56Z" fill="white"/>
<path d="M826.54 125.81C826.54 125.49 826.8 125.24 827.12 125.24C827.43 125.24 827.69 125.49 827.69 125.81C827.69 126.12 827.43 126.37 827.12 126.37C826.8 126.37 826.54 126.12 826.54 125.81Z" fill="white"/>
<path d="M826.54 104.94C826.54 104.63 826.8 104.37 827.12 104.37C827.43 104.37 827.69 104.63 827.69 104.94C827.69 105.25 827.43 105.51 827.12 105.51C826.8 105.51 826.54 105.25 826.54 104.94Z" fill="white"/>
<path d="M826.54 84.07C826.54 83.75 826.8 83.49 827.12 83.49C827.43 83.49 827.69 83.75 827.69 84.07C827.69 84.38 827.43 84.63 827.12 84.63C826.8 84.63 826.54 84.38 826.54 84.07Z" fill="white"/>
<path d="M806.93 230.18C806.93 229.86 807.18 229.6 807.49 229.6C807.81 229.6 808.07 229.86 808.07 230.18C808.07 230.49 807.81 230.74 807.49 230.74C807.18 230.74 806.93 230.49 806.93 230.18Z" fill="white"/>
<path d="M806.93 188.43C806.93 188.12 807.18 187.86 807.49 187.86C807.81 187.86 808.07 188.12 808.07 188.43C808.07 188.75 807.81 189 807.49 189C807.18 189 806.93 188.75 806.93 188.43Z" fill="white"/>
<path d="M806.93 167.56C806.93 167.24 807.18 166.99 807.49 166.99C807.81 166.99 808.07 167.24 808.07 167.56C808.07 167.87 807.81 168.13 807.49 168.13C807.18 168.13 806.93 167.87 806.93 167.56Z" fill="white"/>
<path d="M806.93 146.68C806.93 146.37 807.18 146.11 807.49 146.11C807.81 146.11 808.07 146.37 808.07 146.68C808.07 146.99 807.81 147.25 807.49 147.25C807.18 147.25 806.93 146.99 806.93 146.68Z" fill="white"/>
<path d="M806.93 104.94C806.93 104.63 807.18 104.37 807.49 104.37C807.81 104.37 808.07 104.63 808.07 104.94C808.07 105.25 807.81 105.51 807.49 105.51C807.18 105.51 806.93 105.25 806.93 104.94Z" fill="white"/>
<path d="M787.32 230.18C787.32 229.87 787.58 229.62 787.89 229.62C788.21 229.62 788.46 229.87 788.46 230.18C788.46 230.49 788.21 230.75 787.89 230.75C787.58 230.75 787.32 230.49 787.32 230.18Z" fill="white"/>
<path d="M787.32 209.3C787.32 208.99 787.58 208.73 787.89 208.73C788.21 208.73 788.46 208.99 788.46 209.3C788.46 209.61 788.21 209.87 787.89 209.87C787.58 209.87 787.32 209.61 787.32 209.3Z" fill="white"/>
<path d="M787.32 167.56C787.32 167.25 787.58 166.99 787.89 166.99C788.21 166.99 788.46 167.25 788.46 167.56C788.46 167.87 788.21 168.13 787.89 168.13C787.58 168.13 787.32 167.87 787.32 167.56Z" fill="white"/>
<path d="M787.32 125.81C787.32 125.49 787.58 125.24 787.89 125.24C788.21 125.24 788.46 125.49 788.46 125.81C788.46 126.12 788.21 126.38 787.89 126.38C787.58 126.38 787.32 126.12 787.32 125.81Z" fill="white"/>
<path d="M767.71 251.05C767.71 250.74 767.97 250.48 768.28 250.48C768.6 250.48 768.86 250.74 768.86 251.05C768.86 251.36 768.6 251.62 768.28 251.62C767.97 251.62 767.71 251.36 767.71 251.05Z" fill="white"/>
<path d="M767.71 230.18C767.71 229.87 767.97 229.61 768.28 229.61C768.6 229.61 768.86 229.87 768.86 230.18C768.86 230.5 768.6 230.75 768.28 230.75C767.97 230.75 767.71 230.5 767.71 230.18Z" fill="white"/>
<path d="M767.71 209.3C767.71 208.99 767.97 208.73 768.28 208.73C768.6 208.73 768.86 208.99 768.86 209.3C768.86 209.61 768.6 209.87 768.28 209.87C767.97 209.87 767.71 209.61 767.71 209.3Z" fill="white"/>
<path d="M767.71 188.43C767.71 188.12 767.97 187.86 768.28 187.86C768.6 187.86 768.86 188.12 768.86 188.43C768.86 188.74 768.6 189 768.28 189C767.97 189 767.71 188.74 767.71 188.43Z" fill="white"/>
<path d="M767.71 167.56C767.71 167.25 767.97 166.99 768.28 166.99C768.6 166.99 768.86 167.25 768.86 167.56C768.86 167.87 768.6 168.13 768.28 168.13C767.97 168.13 767.71 167.87 767.71 167.56Z" fill="white"/>
<path d="M767.71 146.68C767.71 146.37 767.97 146.11 768.28 146.11C768.6 146.11 768.86 146.37 768.86 146.68C768.86 146.99 768.6 147.25 768.28 147.25C767.97 147.25 767.71 146.99 767.71 146.68Z" fill="white"/>
<path d="M767.71 125.81C767.71 125.49 767.97 125.23 768.28 125.23C768.6 125.23 768.86 125.49 768.86 125.81C768.86 126.12 768.6 126.38 768.28 126.38C767.97 126.38 767.71 126.12 767.71 125.81Z" fill="white"/>
<path d="M748.1 251.05C748.1 250.74 748.36 250.48 748.67 250.48C748.99 250.48 749.24 250.74 749.24 251.05C749.24 251.36 748.99 251.62 748.67 251.62C748.36 251.62 748.1 251.36 748.1 251.05Z" fill="white"/>
<path d="M748.1 230.18C748.1 229.86 748.36 229.61 748.67 229.61C748.99 229.61 749.24 229.86 749.24 230.18C749.24 230.49 748.99 230.75 748.67 230.75C748.36 230.75 748.1 230.49 748.1 230.18Z" fill="white"/>
<path d="M748.1 209.3C748.1 208.98 748.36 208.73 748.67 208.73C748.99 208.73 749.24 208.98 749.24 209.3C749.24 209.61 748.99 209.87 748.67 209.87C748.36 209.87 748.1 209.61 748.1 209.3Z" fill="white"/>
<path d="M748.1 188.43C748.1 188.12 748.36 187.86 748.67 187.86C748.99 187.86 749.24 188.12 749.24 188.43C749.24 188.74 748.99 189 748.67 189C748.36 189 748.1 188.74 748.1 188.43Z" fill="white"/>
<path d="M748.1 167.56C748.1 167.25 748.36 166.99 748.67 166.99C748.99 166.99 749.24 167.25 749.24 167.56C749.24 167.87 748.99 168.13 748.67 168.13C748.36 168.13 748.1 167.87 748.1 167.56Z" fill="white"/>
<path d="M748.1 146.68C748.1 146.37 748.36 146.11 748.67 146.11C748.99 146.11 749.24 146.37 749.24 146.68C749.24 146.99 748.99 147.25 748.67 147.25C748.36 147.25 748.1 146.99 748.1 146.68Z" fill="white"/>
<path d="M748.1 125.81C748.1 125.49 748.36 125.24 748.67 125.24C748.99 125.24 749.24 125.49 749.24 125.81C749.24 126.12 748.99 126.38 748.67 126.38C748.36 126.38 748.1 126.12 748.1 125.81Z" fill="white"/>
<path d="M748.1 104.94C748.1 104.63 748.36 104.37 748.67 104.37C748.99 104.37 749.24 104.63 749.24 104.94C749.24 105.25 748.99 105.51 748.67 105.51C748.36 105.51 748.1 105.25 748.1 104.94Z" fill="white"/>
<path d="M748.1 63.19C748.1 62.87 748.36 62.62 748.67 62.62C748.99 62.62 749.24 62.87 749.24 63.19C749.24 63.5 748.99 63.76 748.67 63.76C748.36 63.76 748.1 63.5 748.1 63.19Z" fill="white"/>
<path d="M728.49 251.05C728.49 250.74 728.74 250.48 729.06 250.48C729.37 250.48 729.62 250.74 729.62 251.05C729.62 251.36 729.37 251.62 729.06 251.62C728.74 251.62 728.49 251.36 728.49 251.05Z" fill="white"/>
<path d="M728.49 209.3C728.49 208.99 728.74 208.73 729.06 208.73C729.37 208.73 729.62 208.99 729.62 209.3C729.62 209.61 729.37 209.87 729.06 209.87C728.74 209.87 728.49 209.61 728.49 209.3Z" fill="white"/>
<path d="M728.49 188.43C728.49 188.12 728.74 187.86 729.06 187.86C729.37 187.86 729.62 188.12 729.62 188.43C729.62 188.75 729.37 189 729.06 189C728.74 189 728.49 188.75 728.49 188.43Z" fill="white"/>
<path d="M728.49 167.56C728.49 167.25 728.74 166.99 729.06 166.99C729.37 166.99 729.62 167.25 729.62 167.56C729.62 167.87 729.37 168.13 729.06 168.13C728.74 168.13 728.49 167.87 728.49 167.56Z" fill="white"/>
<path d="M728.49 146.68C728.49 146.37 728.74 146.11 729.06 146.11C729.37 146.11 729.62 146.37 729.62 146.68C729.62 146.99 729.37 147.25 729.06 147.25C728.74 147.25 728.49 146.99 728.49 146.68Z" fill="white"/>
<path d="M728.49 104.94C728.49 104.63 728.74 104.37 729.06 104.37C729.37 104.37 729.62 104.63 729.62 104.94C729.62 105.25 729.37 105.51 729.06 105.51C728.74 105.51 728.49 105.25 728.49 104.94Z" fill="white"/>
<path d="M728.49 63.19C728.49 62.88 728.74 62.62 729.06 62.62C729.37 62.62 729.62 62.88 729.62 63.19C729.62 63.5 729.37 63.76 729.06 63.76C728.74 63.76 728.49 63.5 728.49 63.19Z" fill="white"/>
<path d="M728.49 42.32C728.49 42.01 728.74 41.75 729.06 41.75C729.37 41.75 729.62 42.01 729.62 42.32C729.62 42.63 729.37 42.89 729.06 42.89C728.74 42.89 728.49 42.63 728.49 42.32Z" fill="white"/>
<path d="M728.49 21.45C728.49 21.14 728.74 20.88 729.06 20.88C729.37 20.88 729.62 21.14 729.62 21.45C729.62 21.76 729.37 22.02 729.06 22.02C728.74 22.02 728.49 21.76 728.49 21.45Z" fill="white"/>
<path d="M708.88 251.05C708.88 250.74 709.13 250.48 709.45 250.48C709.76 250.48 710.01 250.74 710.01 251.05C710.01 251.36 709.76 251.62 709.45 251.62C709.13 251.62 708.88 251.36 708.88 251.05Z" fill="white"/>
<path d="M708.88 230.18C708.88 229.86 709.13 229.61 709.45 229.61C709.76 229.61 710.01 229.86 710.01 230.18C710.01 230.49 709.76 230.74 709.45 230.74C709.13 230.74 708.88 230.49 708.88 230.18Z" fill="white"/>
<path d="M708.88 209.3C708.88 208.99 709.13 208.73 709.45 208.73C709.76 208.73 710.01 208.99 710.01 209.3C710.01 209.61 709.76 209.87 709.45 209.87C709.13 209.87 708.88 209.61 708.88 209.3Z" fill="white"/>
<path d="M708.88 188.43C708.88 188.12 709.13 187.86 709.45 187.86C709.76 187.86 710.01 188.12 710.01 188.43C710.01 188.74 709.76 189 709.45 189C709.13 189 708.88 188.74 708.88 188.43Z" fill="white"/>
<path d="M708.88 125.81C708.88 125.49 709.13 125.23 709.45 125.23C709.76 125.23 710.01 125.49 710.01 125.81C710.01 126.12 709.76 126.38 709.45 126.38C709.13 126.38 708.88 126.12 708.88 125.81Z" fill="white"/>
<path d="M708.88 42.32C708.88 42.01 709.13 41.75 709.45 41.75C709.76 41.75 710.01 42.01 710.01 42.32C710.01 42.63 709.76 42.89 709.45 42.89C709.13 42.89 708.88 42.63 708.88 42.32Z" fill="white"/>
<path d="M708.88 0.570007C708.88 0.260007 709.13 0 709.45 0C709.76 0 710.01 0.260007 710.01 0.570007C710.01 0.880007 709.76 1.14 709.45 1.14C709.13 1.14 708.88 0.880007 708.88 0.570007Z" fill="white"/>
<path d="M689.27 271.93C689.27 271.61 689.53 271.36 689.85 271.36C690.16 271.36 690.41 271.61 690.41 271.93C690.41 272.24 690.16 272.5 689.85 272.5C689.53 272.5 689.27 272.24 689.27 271.93Z" fill="white"/>
<path d="M689.27 230.18C689.27 229.87 689.53 229.61 689.84 229.61C690.16 229.61 690.41 229.87 690.41 230.18C690.41 230.5 690.16 230.76 689.84 230.76C689.53 230.76 689.27 230.5 689.27 230.18Z" fill="white"/>
<path d="M689.27 209.3C689.27 208.99 689.53 208.73 689.84 208.73C690.16 208.73 690.41 208.99 690.41 209.3C690.41 209.61 690.16 209.87 689.84 209.87C689.53 209.87 689.27 209.61 689.27 209.3Z" fill="white"/>
<path d="M689.27 188.43C689.27 188.12 689.53 187.86 689.84 187.86C690.16 187.86 690.41 188.12 690.41 188.43C690.41 188.75 690.16 189 689.84 189C689.53 189 689.27 188.75 689.27 188.43Z" fill="white"/>
<path d="M689.27 125.81C689.27 125.49 689.53 125.24 689.84 125.24C690.16 125.24 690.41 125.49 690.41 125.81C690.41 126.12 690.16 126.38 689.84 126.38C689.53 126.38 689.27 126.12 689.27 125.81Z" fill="white"/>
<path d="M689.27 104.94C689.27 104.63 689.53 104.37 689.84 104.37C690.16 104.37 690.41 104.63 690.41 104.94C690.41 105.25 690.16 105.51 689.84 105.51C689.53 105.51 689.27 105.25 689.27 104.94Z" fill="white"/>
<path d="M689.27 84.07C689.27 83.75 689.53 83.49 689.84 83.49C690.16 83.49 690.41 83.75 690.41 84.07C690.41 84.38 690.16 84.63 689.84 84.63C689.53 84.63 689.27 84.38 689.27 84.07Z" fill="white"/>
<path d="M689.27 63.19C689.27 62.87 689.53 62.62 689.84 62.62C690.16 62.62 690.41 62.87 690.41 63.19C690.41 63.5 690.16 63.76 689.84 63.76C689.53 63.76 689.27 63.5 689.27 63.19Z" fill="white"/>
<path d="M689.27 42.32C689.27 42.01 689.53 41.75 689.84 41.75C690.16 41.75 690.41 42.01 690.41 42.32C690.41 42.63 690.16 42.89 689.84 42.89C689.53 42.89 689.27 42.63 689.27 42.32Z" fill="white"/>
<path d="M689.27 21.45C689.27 21.14 689.53 20.88 689.84 20.88C690.16 20.88 690.41 21.14 690.41 21.45C690.41 21.76 690.16 22.02 689.84 22.02C689.53 22.02 689.27 21.76 689.27 21.45Z" fill="white"/>
<path d="M669.66 271.93C669.66 271.61 669.91 271.36 670.23 271.36C670.54 271.36 670.79 271.61 670.79 271.93C670.79 272.24 670.54 272.5 670.23 272.5C669.91 272.5 669.66 272.24 669.66 271.93Z" fill="white"/>
<path d="M669.66 251.05C669.66 250.74 669.91 250.48 670.23 250.48C670.54 250.48 670.8 250.74 670.8 251.05C670.8 251.36 670.54 251.62 670.23 251.62C669.91 251.62 669.66 251.36 669.66 251.05Z" fill="white"/>
<path d="M669.66 230.18C669.66 229.87 669.91 229.61 670.23 229.61C670.54 229.61 670.79 229.87 670.79 230.18C670.79 230.49 670.54 230.75 670.23 230.75C669.91 230.75 669.66 230.49 669.66 230.18Z" fill="white"/>
<path d="M669.66 209.3C669.66 208.98 669.92 208.73 670.24 208.73C670.55 208.73 670.81 208.98 670.81 209.3C670.81 209.61 670.55 209.87 670.24 209.87C669.92 209.87 669.66 209.61 669.66 209.3Z" fill="white"/>
<path d="M669.66 146.68C669.66 146.37 669.92 146.11 670.24 146.11C670.55 146.11 670.81 146.37 670.81 146.68C670.81 146.99 670.55 147.25 670.24 147.25C669.92 147.25 669.66 146.99 669.66 146.68Z" fill="white"/>
<path d="M669.66 125.81C669.66 125.49 669.92 125.23 670.24 125.23C670.55 125.23 670.81 125.49 670.81 125.81C670.81 126.12 670.55 126.37 670.24 126.37C669.92 126.37 669.66 126.12 669.66 125.81Z" fill="white"/>
<path d="M669.66 84.07C669.66 83.75 669.92 83.49 670.24 83.49C670.55 83.49 670.81 83.75 670.81 84.07C670.81 84.38 670.55 84.63 670.24 84.63C669.92 84.63 669.66 84.38 669.66 84.07Z" fill="white"/>
<path d="M669.66 63.19C669.66 62.88 669.92 62.62 670.24 62.62C670.55 62.62 670.81 62.88 670.81 63.19C670.81 63.5 670.55 63.76 670.24 63.76C669.92 63.76 669.66 63.5 669.66 63.19Z" fill="white"/>
<path d="M669.66 42.32C669.66 42.01 669.92 41.75 670.24 41.75C670.55 41.75 670.81 42.01 670.81 42.32C670.81 42.63 670.55 42.89 670.24 42.89C669.92 42.89 669.66 42.63 669.66 42.32Z" fill="white"/>
<path d="M650.05 230.18C650.05 229.87 650.31 229.61 650.62 229.61C650.94 229.61 651.19 229.87 651.19 230.18C651.19 230.49 650.94 230.75 650.62 230.75C650.31 230.75 650.05 230.49 650.05 230.18Z" fill="white"/>
<path d="M650.05 104.94C650.05 104.63 650.3 104.37 650.61 104.37C650.93 104.37 651.18 104.63 651.18 104.94C651.18 105.25 650.93 105.51 650.61 105.51C650.3 105.51 650.05 105.25 650.05 104.94Z" fill="white"/>
<path d="M650.05 84.06C650.05 83.75 650.3 83.49 650.61 83.49C650.93 83.49 651.18 83.75 651.18 84.06C651.18 84.38 650.93 84.64 650.61 84.64C650.3 84.64 650.05 84.38 650.05 84.06Z" fill="white"/>
<path d="M650.05 21.45C650.05 21.14 650.3 20.88 650.61 20.88C650.93 20.88 651.18 21.14 651.18 21.45C651.18 21.76 650.93 22.02 650.61 22.02C650.3 22.02 650.05 21.76 650.05 21.45Z" fill="white"/>
<path d="M630.44 125.81C630.44 125.49 630.69 125.24 631 125.24C631.32 125.24 631.57 125.49 631.57 125.81C631.57 126.12 631.32 126.38 631 126.38C630.69 126.38 630.44 126.12 630.44 125.81Z" fill="white"/>
<path d="M630.44 104.94C630.44 104.63 630.69 104.37 631 104.37C631.32 104.37 631.57 104.63 631.57 104.94C631.57 105.25 631.32 105.51 631 105.51C630.69 105.51 630.44 105.25 630.44 104.94Z" fill="white"/>
<path d="M630.44 84.07C630.44 83.75 630.69 83.5 631 83.5C631.32 83.5 631.57 83.75 631.57 84.07C631.57 84.38 631.32 84.63 631 84.63C630.69 84.63 630.44 84.38 630.44 84.07Z" fill="white"/>
<path d="M630.44 63.19C630.44 62.88 630.69 62.62 631 62.62C631.32 62.62 631.57 62.88 631.57 63.19C631.57 63.5 631.32 63.76 631 63.76C630.69 63.76 630.44 63.5 630.44 63.19Z" fill="white"/>
<path d="M630.44 21.45C630.44 21.13 630.69 20.88 631 20.88C631.32 20.88 631.57 21.13 631.57 21.45C631.57 21.76 631.32 22.02 631 22.02C630.69 22.02 630.44 21.76 630.44 21.45Z" fill="white"/>
<path d="M610.83 104.94C610.83 104.63 611.09 104.37 611.4 104.37C611.72 104.37 611.98 104.63 611.98 104.94C611.98 105.25 611.72 105.51 611.4 105.51C611.09 105.51 610.83 105.25 610.83 104.94Z" fill="white"/>
<path d="M610.83 63.19C610.83 62.88 611.09 62.62 611.4 62.62C611.72 62.62 611.98 62.88 611.98 63.19C611.98 63.5 611.72 63.76 611.4 63.76C611.09 63.76 610.83 63.5 610.83 63.19Z" fill="white"/>
<path d="M610.83 21.45C610.83 21.14 611.09 20.88 611.4 20.88C611.72 20.88 611.98 21.14 611.98 21.45C611.98 21.76 611.72 22.02 611.4 22.02C611.09 22.02 610.83 21.76 610.83 21.45Z" fill="white"/>
<path d="M591.22 104.94C591.22 104.63 591.48 104.37 591.79 104.37C592.11 104.37 592.37 104.63 592.37 104.94C592.37 105.25 592.11 105.51 591.79 105.51C591.48 105.51 591.22 105.25 591.22 104.94Z" fill="white"/>
<path d="M571.61 104.94C571.61 104.63 571.86 104.37 572.18 104.37C572.49 104.37 572.75 104.63 572.75 104.94C572.75 105.25 572.49 105.51 572.18 105.51C571.86 105.51 571.61 105.25 571.61 104.94Z" fill="white"/>
<path d="M552 84.06C552 83.75 552.26 83.5 552.58 83.5C552.89 83.5 553.15 83.75 553.15 84.06C553.15 84.38 552.89 84.63 552.58 84.63C552.26 84.63 552 84.38 552 84.06Z" fill="white"/>
<path d="M552 63.19C552 62.87 552.26 62.62 552.58 62.62C552.89 62.62 553.15 62.87 553.15 63.19C553.15 63.5 552.89 63.76 552.58 63.76C552.26 63.76 552 63.5 552 63.19Z" fill="white"/>
<path d="M1120.69 230.18C1120.69 229.86 1120.94 229.6 1121.25 229.6C1121.57 229.6 1121.82 229.86 1121.82 230.18C1121.82 230.49 1121.57 230.74 1121.25 230.74C1120.94 230.74 1120.69 230.48 1120.69 230.18Z" fill="white"/>
<path d="M1120.69 209.3C1120.69 208.98 1120.94 208.73 1121.25 208.73C1121.57 208.73 1121.82 208.98 1121.82 209.3C1121.82 209.61 1121.57 209.87 1121.25 209.87C1120.94 209.87 1120.69 209.61 1120.69 209.3Z" fill="white"/>
<path d="M1120.69 188.43C1120.69 188.12 1120.94 187.86 1121.25 187.86C1121.57 187.86 1121.82 188.12 1121.82 188.43C1121.82 188.74 1121.57 189 1121.25 189C1120.94 189 1120.69 188.74 1120.69 188.43Z" fill="white"/>
<path d="M1120.69 167.56C1120.69 167.25 1120.94 166.99 1121.25 166.99C1121.57 166.99 1121.82 167.25 1121.82 167.56C1121.82 167.87 1121.57 168.13 1121.25 168.13C1120.94 168.13 1120.69 167.87 1120.69 167.56Z" fill="white"/>
<path d="M1120.69 146.68C1120.69 146.37 1120.94 146.11 1121.25 146.11C1121.57 146.11 1121.82 146.37 1121.82 146.68C1121.82 146.99 1121.57 147.25 1121.25 147.25C1120.94 147.25 1120.69 146.99 1120.69 146.68Z" fill="white"/>
<path d="M1101.08 334.55C1101.08 334.23 1101.34 333.97 1101.65 333.97C1101.96 333.97 1102.23 334.23 1102.23 334.55C1102.23 334.86 1101.97 335.11 1101.65 335.11C1101.34 335.11 1101.08 334.86 1101.08 334.55Z" fill="white"/>
<path d="M1101.08 313.67C1101.08 313.35 1101.34 313.1 1101.65 313.1C1101.96 313.1 1102.23 313.35 1102.23 313.67C1102.23 313.98 1101.97 314.24 1101.65 314.24C1101.34 314.24 1101.08 313.98 1101.08 313.67Z" fill="white"/>
<path d="M1101.08 292.8C1101.08 292.49 1101.34 292.23 1101.65 292.23C1101.96 292.23 1102.23 292.49 1102.23 292.8C1102.23 293.11 1101.97 293.37 1101.65 293.37C1101.34 293.37 1101.08 293.11 1101.08 292.8Z" fill="white"/>
<path d="M1101.08 271.93C1101.08 271.61 1101.34 271.36 1101.65 271.36C1101.96 271.36 1102.23 271.61 1102.23 271.93C1102.23 272.24 1101.97 272.5 1101.65 272.5C1101.34 272.5 1101.08 272.24 1101.08 271.93Z" fill="white"/>
<path d="M1101.08 230.18C1101.08 229.86 1101.34 229.6 1101.65 229.6C1101.96 229.6 1102.23 229.86 1102.23 230.18C1102.23 230.49 1101.97 230.75 1101.65 230.75C1101.34 230.75 1101.08 230.49 1101.08 230.18Z" fill="white"/>
<path d="M1101.08 209.3C1101.08 208.99 1101.34 208.73 1101.65 208.73C1101.96 208.73 1102.23 208.99 1102.23 209.3C1102.23 209.61 1101.97 209.87 1101.65 209.87C1101.34 209.87 1101.08 209.61 1101.08 209.3Z" fill="white"/>
<path d="M1101.08 188.43C1101.08 188.12 1101.34 187.86 1101.65 187.86C1101.96 187.86 1102.23 188.12 1102.23 188.43C1102.23 188.74 1101.97 189 1101.65 189C1101.34 189 1101.08 188.74 1101.08 188.43Z" fill="white"/>
<path d="M1101.08 146.68C1101.08 146.37 1101.34 146.11 1101.65 146.11C1101.96 146.11 1102.23 146.37 1102.23 146.68C1102.23 146.99 1101.97 147.25 1101.65 147.25C1101.34 147.25 1101.08 146.99 1101.08 146.68Z" fill="white"/>
<path d="M1101.08 125.81C1101.08 125.49 1101.34 125.24 1101.65 125.24C1101.96 125.24 1102.23 125.49 1102.23 125.81C1102.23 126.12 1101.97 126.38 1101.65 126.38C1101.34 126.38 1101.08 126.12 1101.08 125.81Z" fill="white"/>
<path d="M1081.47 313.67C1081.47 313.36 1081.73 313.1 1082.04 313.1C1082.36 313.1 1082.61 313.36 1082.61 313.67C1082.61 313.98 1082.36 314.24 1082.04 314.24C1081.73 314.24 1081.47 313.98 1081.47 313.67Z" fill="white"/>
<path d="M1081.47 292.8C1081.47 292.49 1081.73 292.23 1082.04 292.23C1082.36 292.23 1082.61 292.49 1082.61 292.8C1082.61 293.11 1082.36 293.37 1082.04 293.37C1081.73 293.37 1081.47 293.11 1081.47 292.8Z" fill="white"/>
<path d="M1081.47 271.93C1081.47 271.61 1081.73 271.36 1082.04 271.36C1082.36 271.36 1082.61 271.61 1082.61 271.93C1082.61 272.24 1082.36 272.5 1082.04 272.5C1081.73 272.5 1081.47 272.24 1081.47 271.93Z" fill="white"/>
<path d="M1081.47 188.43C1081.47 188.12 1081.73 187.86 1082.04 187.86C1082.36 187.86 1082.61 188.12 1082.61 188.43C1082.61 188.74 1082.36 189 1082.04 189C1081.73 189 1081.47 188.74 1081.47 188.43Z" fill="white"/>
<path d="M1081.47 146.68C1081.47 146.37 1081.73 146.11 1082.04 146.11C1082.36 146.11 1082.61 146.37 1082.61 146.68C1082.61 146.99 1082.36 147.25 1082.04 147.25C1081.73 147.25 1081.47 146.99 1081.47 146.68Z" fill="white"/>
<path d="M1061.87 292.8C1061.87 292.49 1062.12 292.23 1062.44 292.23C1062.75 292.23 1063.01 292.49 1063.01 292.8C1063.01 293.11 1062.75 293.37 1062.44 293.37C1062.12 293.37 1061.87 293.11 1061.87 292.8Z" fill="white"/>
<path d="M1061.87 251.05C1061.87 250.74 1062.12 250.48 1062.44 250.48C1062.75 250.48 1063.01 250.74 1063.01 251.05C1063.01 251.36 1062.75 251.62 1062.44 251.62C1062.12 251.62 1061.87 251.36 1061.87 251.05Z" fill="white"/>
<path d="M1061.87 209.3C1061.87 208.99 1062.12 208.73 1062.44 208.73C1062.75 208.73 1063.01 208.99 1063.01 209.3C1063.01 209.61 1062.75 209.87 1062.44 209.87C1062.12 209.87 1061.87 209.61 1061.87 209.3Z" fill="white"/>
<path d="M1061.87 167.56C1061.87 167.25 1062.12 166.99 1062.44 166.99C1062.75 166.99 1063.01 167.25 1063.01 167.56C1063.01 167.87 1062.75 168.13 1062.44 168.13C1062.12 168.13 1061.87 167.87 1061.87 167.56Z" fill="white"/>
<path d="M1061.87 125.81C1061.87 125.49 1062.12 125.24 1062.44 125.24C1062.75 125.24 1063.01 125.49 1063.01 125.81C1063.01 126.12 1062.75 126.38 1062.44 126.38C1062.12 126.38 1061.87 126.12 1061.87 125.81Z" fill="white"/>
<path d="M1061.87 104.94C1061.87 104.63 1062.12 104.37 1062.44 104.37C1062.75 104.37 1063.01 104.63 1063.01 104.94C1063.01 105.25 1062.75 105.51 1062.44 105.51C1062.12 105.51 1061.87 105.25 1061.87 104.94Z" fill="white"/>
<path d="M1042.25 334.54C1042.25 334.23 1042.51 333.97 1042.82 333.97C1043.13 333.97 1043.39 334.23 1043.39 334.54C1043.39 334.86 1043.13 335.11 1042.82 335.11C1042.51 335.11 1042.25 334.86 1042.25 334.54Z" fill="white"/>
<path d="M1042.25 313.67C1042.25 313.36 1042.51 313.1 1042.82 313.1C1043.13 313.1 1043.39 313.36 1043.39 313.67C1043.39 313.98 1043.13 314.24 1042.82 314.24C1042.51 314.24 1042.25 313.98 1042.25 313.67Z" fill="white"/>
<path d="M1042.25 271.93C1042.25 271.61 1042.51 271.36 1042.82 271.36C1043.13 271.36 1043.39 271.61 1043.39 271.93C1043.39 272.24 1043.13 272.5 1042.82 272.5C1042.51 272.5 1042.25 272.24 1042.25 271.93Z" fill="white"/>
<path d="M885.37 146.68C885.37 146.37 885.63 146.11 885.94 146.11C886.26 146.11 886.52 146.37 886.52 146.68C886.52 146.99 886.26 147.25 885.94 147.25C885.63 147.25 885.37 146.99 885.37 146.68Z" fill="white"/>
<path d="M865.76 188.43C865.76 188.12 866.01 187.86 866.32 187.86C866.64 187.86 866.89 188.12 866.89 188.43C866.89 188.74 866.64 189 866.32 189C866.01 189 865.76 188.74 865.76 188.43Z" fill="white"/>
<path d="M865.76 167.56C865.76 167.24 866.01 166.99 866.32 166.99C866.64 166.99 866.89 167.24 866.89 167.56C866.89 167.87 866.64 168.13 866.32 168.13C866.01 168.13 865.76 167.87 865.76 167.56Z" fill="white"/>
<path d="M826.54 230.18C826.54 229.87 826.8 229.62 827.12 229.62C827.43 229.62 827.69 229.87 827.69 230.18C827.69 230.5 827.43 230.76 827.12 230.76C826.8 230.76 826.54 230.5 826.54 230.18Z" fill="white"/>
<path d="M787.32 188.43C787.32 188.12 787.58 187.86 787.89 187.86C788.21 187.86 788.46 188.12 788.46 188.43C788.46 188.74 788.21 189 787.89 189C787.58 189 787.32 188.74 787.32 188.43Z" fill="white"/>
<path d="M728.49 230.18C728.49 229.86 728.74 229.6 729.06 229.6C729.37 229.6 729.62 229.86 729.62 230.18C729.62 230.49 729.37 230.75 729.06 230.75C728.74 230.75 728.49 230.49 728.49 230.18Z" fill="white"/>
<path d="M708.88 84.06C708.88 83.75 709.13 83.49 709.45 83.49C709.76 83.49 710.01 83.75 710.01 84.06C710.01 84.38 709.76 84.64 709.45 84.64C709.13 84.64 708.88 84.38 708.88 84.06Z" fill="white"/>
<path d="M708.88 63.19C708.88 62.87 709.13 62.62 709.45 62.62C709.76 62.62 710.01 62.87 710.01 63.19C710.01 63.5 709.76 63.76 709.45 63.76C709.13 63.76 708.88 63.5 708.88 63.19Z" fill="white"/>
<path d="M689.27 146.68C689.27 146.37 689.53 146.11 689.84 146.11C690.16 146.11 690.41 146.37 690.41 146.68C690.41 146.99 690.16 147.25 689.84 147.25C689.53 147.25 689.27 146.99 689.27 146.68Z" fill="white"/>
<path d="M650.05 125.81C650.05 125.5 650.3 125.25 650.61 125.25C650.93 125.25 651.18 125.5 651.18 125.81C651.18 126.13 650.93 126.39 650.61 126.39C650.3 126.39 650.05 126.13 650.05 125.81Z" fill="white"/>
<path d="M630.44 42.32C630.44 42.01 630.69 41.75 631 41.75C631.32 41.75 631.57 42.01 631.57 42.32C631.57 42.63 631.32 42.89 631 42.89C630.69 42.89 630.44 42.63 630.44 42.32Z" fill="white"/>
<path d="M610.83 84.06C610.83 83.75 611.09 83.49 611.4 83.49C611.72 83.49 611.98 83.75 611.98 84.06C611.98 84.38 611.72 84.63 611.4 84.63C611.09 84.63 610.83 84.38 610.83 84.06Z" fill="white"/>
<path d="M571.61 84.07C571.61 83.75 571.86 83.5 572.18 83.5C572.49 83.5 572.75 83.75 572.75 84.07C572.75 84.38 572.49 84.64 572.18 84.64C571.86 84.64 571.61 84.38 571.61 84.07Z" fill="white"/>
<path d="M571.61 63.19C571.61 62.87 571.86 62.62 572.18 62.62C572.49 62.62 572.75 62.87 572.75 63.19C572.75 63.5 572.49 63.76 572.18 63.76C571.86 63.76 571.61 63.5 571.61 63.19Z" fill="white"/>
<path d="M1120.69 251.05C1120.69 250.74 1120.94 250.48 1121.25 250.48C1121.57 250.48 1121.82 250.74 1121.82 251.05C1121.82 251.36 1121.57 251.62 1121.25 251.62C1120.94 251.62 1120.69 251.36 1120.69 251.05Z" fill="white"/>
<path d="M1081.47 251.05C1081.47 250.74 1081.73 250.48 1082.04 250.48C1082.36 250.48 1082.61 250.74 1082.61 251.05C1082.61 251.36 1082.36 251.62 1082.04 251.62C1081.73 251.62 1081.47 251.36 1081.47 251.05Z" fill="white"/>
<path d="M1081.47 209.3C1081.47 208.99 1081.73 208.73 1082.04 208.73C1082.36 208.73 1082.61 208.99 1082.61 209.3C1082.61 209.61 1082.36 209.87 1082.04 209.87C1081.73 209.87 1081.47 209.61 1081.47 209.3Z" fill="white"/>
<path d="M1061.87 334.54C1061.87 334.23 1062.12 333.97 1062.44 333.97C1062.75 333.97 1063.01 334.23 1063.01 334.54C1063.01 334.85 1062.75 335.11 1062.44 335.11C1062.12 335.11 1061.87 334.85 1061.87 334.54Z" fill="white"/>
<path d="M1061.87 188.43C1061.87 188.12 1062.12 187.86 1062.44 187.86C1062.75 187.86 1063.01 188.12 1063.01 188.43C1063.01 188.75 1062.75 189 1062.44 189C1062.12 189 1061.87 188.75 1061.87 188.43Z" fill="white"/>
<path d="M1042.25 230.18C1042.25 229.86 1042.51 229.6 1042.82 229.6C1043.13 229.6 1043.39 229.86 1043.39 230.18C1043.39 230.49 1043.13 230.74 1042.82 230.74C1042.51 230.74 1042.25 230.49 1042.25 230.18Z" fill="white"/>
<path d="M1042.25 209.3C1042.25 208.99 1042.51 208.73 1042.82 208.73C1043.13 208.73 1043.39 208.99 1043.39 209.3C1043.39 209.61 1043.13 209.87 1042.82 209.87C1042.51 209.87 1042.25 209.61 1042.25 209.3Z" fill="white"/>
<path d="M1042.25 188.43C1042.25 188.12 1042.51 187.86 1042.82 187.86C1043.13 187.86 1043.39 188.12 1043.39 188.43C1043.39 188.74 1043.13 189 1042.82 189C1042.51 189 1042.25 188.74 1042.25 188.43Z" fill="white"/>
<path d="M1042.25 167.56C1042.25 167.25 1042.51 166.99 1042.82 166.99C1043.13 166.99 1043.39 167.25 1043.39 167.56C1043.39 167.87 1043.13 168.13 1042.82 168.13C1042.51 168.13 1042.25 167.87 1042.25 167.56Z" fill="white"/>
<path d="M1042.25 125.81C1042.25 125.5 1042.51 125.25 1042.82 125.25C1043.13 125.25 1043.39 125.51 1043.39 125.81C1043.39 126.13 1043.13 126.39 1042.82 126.39C1042.51 126.39 1042.25 126.13 1042.25 125.81Z" fill="white"/>
<path d="M1022.64 230.18C1022.64 229.87 1022.89 229.61 1023.21 229.61C1023.52 229.61 1023.77 229.87 1023.77 230.18C1023.77 230.49 1023.52 230.76 1023.21 230.76C1022.89 230.76 1022.64 230.5 1022.64 230.18Z" fill="white"/>
<path d="M1022.64 209.3C1022.64 208.98 1022.89 208.73 1023.21 208.73C1023.52 208.73 1023.77 208.98 1023.77 209.3C1023.77 209.61 1023.52 209.87 1023.21 209.87C1022.89 209.87 1022.64 209.61 1022.64 209.3Z" fill="white"/>
<path d="M1022.64 188.43C1022.64 188.12 1022.89 187.86 1023.21 187.86C1023.52 187.86 1023.77 188.12 1023.77 188.43C1023.77 188.75 1023.52 189 1023.21 189C1022.89 189 1022.64 188.75 1022.64 188.43Z" fill="white"/>
<path d="M1022.64 167.56C1022.64 167.25 1022.89 166.99 1023.21 166.99C1023.52 166.99 1023.77 167.25 1023.77 167.56C1023.77 167.87 1023.52 168.13 1023.21 168.13C1022.89 168.13 1022.64 167.87 1022.64 167.56Z" fill="white"/>
<path d="M1022.64 146.68C1022.64 146.37 1022.89 146.11 1023.21 146.11C1023.52 146.11 1023.77 146.37 1023.77 146.68C1023.77 146.99 1023.52 147.25 1023.21 147.25C1022.89 147.25 1022.64 146.99 1022.64 146.68Z" fill="white"/>
<path d="M1022.64 125.81C1022.64 125.49 1022.89 125.24 1023.21 125.24C1023.52 125.24 1023.77 125.49 1023.77 125.81C1023.77 126.12 1023.52 126.37 1023.21 126.37C1022.89 126.37 1022.64 126.12 1022.64 125.81Z" fill="white"/>
<path d="M1022.64 104.94C1022.64 104.63 1022.89 104.37 1023.21 104.37C1023.52 104.37 1023.77 104.63 1023.77 104.94C1023.77 105.25 1023.52 105.51 1023.21 105.51C1022.89 105.51 1022.64 105.25 1022.64 104.94Z" fill="white"/>
<path d="M1022.64 84.07C1022.64 83.75 1022.89 83.49 1023.21 83.49C1023.52 83.49 1023.77 83.75 1023.77 84.07C1023.77 84.38 1023.52 84.63 1023.21 84.63C1022.89 84.63 1022.64 84.38 1022.64 84.07Z" fill="white"/>
<path d="M1003.03 167.56C1003.03 167.25 1003.29 166.99 1003.6 166.99C1003.92 166.99 1004.18 167.25 1004.18 167.56C1004.18 167.87 1003.92 168.13 1003.6 168.13C1003.29 168.13 1003.03 167.87 1003.03 167.56Z" fill="white"/>
<path d="M1003.03 146.68C1003.03 146.37 1003.29 146.11 1003.6 146.11C1003.92 146.11 1004.18 146.37 1004.18 146.68C1004.18 146.99 1003.92 147.25 1003.6 147.25C1003.29 147.25 1003.03 146.99 1003.03 146.68Z" fill="white"/>
<path d="M1003.03 125.81C1003.03 125.49 1003.29 125.24 1003.6 125.24C1003.92 125.24 1004.18 125.49 1004.18 125.81C1004.18 126.12 1003.92 126.38 1003.6 126.38C1003.29 126.38 1003.03 126.12 1003.03 125.81Z" fill="white"/>
<path d="M1003.03 104.94C1003.03 104.63 1003.29 104.37 1003.6 104.37C1003.92 104.37 1004.18 104.63 1004.18 104.94C1004.18 105.25 1003.92 105.51 1003.6 105.51C1003.29 105.51 1003.03 105.25 1003.03 104.94Z" fill="white"/>
<path d="M1003.03 84.07C1003.03 83.75 1003.29 83.5 1003.6 83.5C1003.92 83.5 1004.18 83.75 1004.18 84.07C1004.18 84.38 1003.92 84.64 1003.6 84.64C1003.29 84.64 1003.03 84.38 1003.03 84.07Z" fill="white"/>
<path d="M983.42 209.3C983.42 208.99 983.68 208.73 983.99 208.73C984.31 208.73 984.56 208.99 984.56 209.3C984.56 209.61 984.31 209.87 983.99 209.87C983.68 209.87 983.42 209.61 983.42 209.3Z" fill="white"/>
<path d="M983.42 167.56C983.42 167.25 983.68 166.99 983.99 166.99C984.31 166.99 984.56 167.25 984.56 167.56C984.56 167.87 984.31 168.13 983.99 168.13C983.68 168.13 983.42 167.87 983.42 167.56Z" fill="white"/>
<path d="M983.42 125.81C983.42 125.49 983.68 125.24 983.99 125.24C984.31 125.24 984.56 125.49 984.56 125.81C984.56 126.12 984.31 126.38 983.99 126.38C983.68 126.38 983.42 126.12 983.42 125.81Z" fill="white"/>
<path d="M963.82 251.05C963.82 250.74 964.07 250.48 964.39 250.48C964.7 250.48 964.95 250.74 964.95 251.05C964.95 251.36 964.7 251.62 964.39 251.62C964.07 251.62 963.82 251.36 963.82 251.05Z" fill="white"/>
<path d="M963.82 230.18C963.82 229.87 964.07 229.61 964.39 229.61C964.7 229.61 964.95 229.87 964.95 230.18C964.95 230.49 964.7 230.76 964.39 230.76C964.07 230.76 963.82 230.5 963.82 230.18Z" fill="white"/>
<path d="M963.82 209.3C963.82 208.99 964.07 208.73 964.39 208.73C964.7 208.73 964.95 208.99 964.95 209.3C964.95 209.61 964.7 209.87 964.39 209.87C964.07 209.87 963.82 209.61 963.82 209.3Z" fill="white"/>
<path d="M963.82 188.43C963.82 188.12 964.07 187.86 964.39 187.86C964.7 187.86 964.95 188.12 964.95 188.43C964.95 188.75 964.7 189 964.39 189C964.07 189 963.82 188.75 963.82 188.43Z" fill="white"/>
<path d="M963.82 167.56C963.82 167.25 964.07 166.99 964.39 166.99C964.7 166.99 964.95 167.25 964.95 167.56C964.95 167.87 964.7 168.13 964.39 168.13C964.07 168.13 963.82 167.87 963.82 167.56Z" fill="white"/>
<path d="M963.82 146.68C963.82 146.37 964.07 146.11 964.39 146.11C964.7 146.11 964.95 146.37 964.95 146.68C964.95 146.99 964.7 147.25 964.39 147.25C964.07 147.25 963.82 146.99 963.82 146.68Z" fill="white"/>
<path d="M963.82 104.94C963.82 104.63 964.07 104.37 964.39 104.37C964.7 104.37 964.95 104.63 964.95 104.94C964.95 105.25 964.7 105.51 964.39 105.51C964.07 105.51 963.82 105.25 963.82 104.94Z" fill="white"/>
<path d="M944.2 251.05C944.2 250.74 944.46 250.48 944.77 250.48C945.09 250.48 945.35 250.74 945.35 251.05C945.35 251.36 945.09 251.62 944.77 251.62C944.46 251.62 944.2 251.36 944.2 251.05Z" fill="white"/>
<path d="M944.2 230.18C944.2 229.86 944.46 229.6 944.77 229.6C945.09 229.6 945.35 229.86 945.35 230.18C945.35 230.49 945.09 230.75 944.77 230.75C944.46 230.75 944.2 230.49 944.2 230.18Z" fill="white"/>
<path d="M944.2 209.3C944.2 208.99 944.46 208.73 944.77 208.73C945.09 208.73 945.35 208.99 945.35 209.3C945.35 209.61 945.09 209.87 944.77 209.87C944.46 209.87 944.2 209.61 944.2 209.3Z" fill="white"/>
<path d="M944.2 167.56C944.2 167.25 944.46 166.99 944.77 166.99C945.09 166.99 945.35 167.25 945.35 167.56C945.35 167.87 945.09 168.13 944.77 168.13C944.46 168.13 944.2 167.87 944.2 167.56Z" fill="white"/>
<path d="M944.2 104.94C944.2 104.63 944.46 104.37 944.77 104.37C945.09 104.37 945.35 104.63 945.35 104.94C945.35 105.25 945.09 105.51 944.77 105.51C944.46 105.51 944.2 105.25 944.2 104.94Z" fill="white"/>
<path d="M924.59 251.05C924.59 250.74 924.84 250.48 925.15 250.48C925.47 250.48 925.73 250.74 925.73 251.05C925.73 251.36 925.47 251.62 925.15 251.62C924.84 251.62 924.59 251.36 924.59 251.05Z" fill="white"/>
<path d="M924.59 209.3C924.59 208.99 924.84 208.73 925.15 208.73C925.47 208.73 925.73 208.99 925.73 209.3C925.73 209.61 925.47 209.87 925.15 209.87C924.84 209.87 924.59 209.61 924.59 209.3Z" fill="white"/>
<path d="M885.37 167.56C885.37 167.25 885.63 166.99 885.94 166.99C886.26 166.99 886.52 167.25 886.52 167.56C886.52 167.87 886.26 168.13 885.94 168.13C885.63 168.13 885.37 167.87 885.37 167.56Z" fill="white"/>
<path d="M846.15 146.68C846.15 146.37 846.41 146.11 846.72 146.11C847.04 146.11 847.29 146.37 847.29 146.68C847.29 146.99 847.04 147.25 846.72 147.25C846.41 147.25 846.15 146.99 846.15 146.68Z" fill="white"/>
<path d="M826.54 209.3C826.54 208.99 826.8 208.73 827.12 208.73C827.43 208.73 827.69 208.99 827.69 209.3C827.69 209.61 827.43 209.87 827.12 209.87C826.8 209.87 826.54 209.61 826.54 209.3Z" fill="white"/>
<path d="M787.32 251.05C787.32 250.74 787.58 250.48 787.89 250.48C788.21 250.48 788.46 250.74 788.46 251.05C788.46 251.36 788.21 251.62 787.89 251.62C787.58 251.62 787.32 251.36 787.32 251.05Z" fill="white"/>
<path d="M787.32 146.68C787.32 146.37 787.58 146.11 787.89 146.11C788.21 146.11 788.46 146.37 788.46 146.68C788.46 146.99 788.21 147.25 787.89 147.25C787.58 147.25 787.32 146.99 787.32 146.68Z" fill="white"/>
<path d="M787.32 84.07C787.32 83.75 787.58 83.49 787.89 83.49C788.21 83.49 788.46 83.75 788.46 84.07C788.46 84.38 788.21 84.63 787.89 84.63C787.58 84.63 787.32 84.38 787.32 84.07Z" fill="white"/>
<path d="M728.49 84.06C728.49 83.75 728.74 83.5 729.06 83.5C729.37 83.5 729.62 83.75 729.62 84.06C729.62 84.38 729.37 84.63 729.06 84.63C728.74 84.63 728.49 84.38 728.49 84.06Z" fill="white"/>
<path d="M708.88 146.68C708.88 146.37 709.13 146.11 709.45 146.11C709.76 146.11 710.01 146.37 710.01 146.68C710.01 146.99 709.76 147.25 709.45 147.25C709.13 147.25 708.88 146.99 708.88 146.68Z" fill="white"/>
<path d="M708.88 21.45C708.88 21.14 709.13 20.88 709.45 20.88C709.76 20.88 710.01 21.14 710.01 21.45C710.01 21.76 709.76 22.02 709.45 22.02C709.13 22.02 708.88 21.76 708.88 21.45Z" fill="white"/>
<path d="M650.05 63.19C650.05 62.87 650.3 62.62 650.61 62.62C650.93 62.62 651.18 62.87 651.18 63.19C651.18 63.5 650.93 63.76 650.61 63.76C650.3 63.76 650.05 63.5 650.05 63.19Z" fill="white"/>
<path d="M650.05 42.32C650.05 42.01 650.3 41.75 650.61 41.75C650.93 41.75 651.18 42.01 651.18 42.32C651.18 42.63 650.93 42.89 650.61 42.89C650.3 42.89 650.05 42.63 650.05 42.32Z" fill="white"/>
<path d="M591.22 63.19C591.22 62.88 591.48 62.62 591.79 62.62C592.11 62.62 592.37 62.88 592.37 63.19C592.37 63.5 592.11 63.76 591.79 63.76C591.48 63.76 591.22 63.5 591.22 63.19Z" fill="white"/>
<path d="M591.22 42.32C591.22 42.01 591.48 41.75 591.79 41.75C592.11 41.75 592.37 42.01 592.37 42.32C592.37 42.63 592.11 42.89 591.79 42.89C591.48 42.89 591.22 42.63 591.22 42.32Z" fill="white"/>
<path d="M1120.69 271.93C1120.69 271.61 1120.94 271.36 1121.25 271.36C1121.57 271.36 1121.82 271.61 1121.82 271.93C1121.82 272.24 1121.57 272.5 1121.25 272.5C1120.94 272.5 1120.69 272.24 1120.69 271.93Z" fill="white"/>
<path d="M1101.08 251.05C1101.08 250.74 1101.34 250.48 1101.65 250.48C1101.96 250.48 1102.23 250.74 1102.23 251.05C1102.23 251.36 1101.97 251.62 1101.65 251.62C1101.34 251.62 1101.08 251.36 1101.08 251.05Z" fill="white"/>
<path d="M1081.47 230.18C1081.47 229.86 1081.73 229.61 1082.04 229.61C1082.36 229.61 1082.61 229.86 1082.61 230.18C1082.61 230.49 1082.36 230.75 1082.04 230.75C1081.73 230.75 1081.47 230.49 1081.47 230.18Z" fill="white"/>
<path d="M1081.47 167.56C1081.47 167.25 1081.73 166.99 1082.04 166.99C1082.36 166.99 1082.61 167.25 1082.61 167.56C1082.61 167.87 1082.36 168.13 1082.04 168.13C1081.73 168.13 1081.47 167.87 1081.47 167.56Z" fill="white"/>
<path d="M1081.47 125.81C1081.47 125.49 1081.73 125.24 1082.04 125.24C1082.36 125.24 1082.61 125.49 1082.61 125.81C1082.61 126.12 1082.36 126.38 1082.04 126.38C1081.73 126.38 1081.47 126.12 1081.47 125.81Z" fill="white"/>
<path d="M1061.87 271.93C1061.87 271.62 1062.12 271.36 1062.44 271.36C1062.75 271.36 1063.01 271.62 1063.01 271.93C1063.01 272.24 1062.75 272.5 1062.44 272.5C1062.12 272.5 1061.87 272.24 1061.87 271.93Z" fill="white"/>
<path d="M1061.87 230.18C1061.87 229.86 1062.12 229.61 1062.44 229.61C1062.75 229.61 1063.01 229.86 1063.01 230.18C1063.01 230.49 1062.75 230.75 1062.44 230.75C1062.12 230.75 1061.87 230.49 1061.87 230.18Z" fill="white"/>
<path d="M1061.87 146.68C1061.87 146.37 1062.12 146.11 1062.44 146.11C1062.75 146.11 1063.01 146.37 1063.01 146.68C1063.01 146.99 1062.75 147.25 1062.44 147.25C1062.12 147.25 1061.87 146.99 1061.87 146.68Z" fill="white"/>
<path d="M1042.25 104.94C1042.25 104.63 1042.51 104.37 1042.82 104.37C1043.13 104.37 1043.39 104.63 1043.39 104.94C1043.39 105.25 1043.13 105.51 1042.82 105.51C1042.51 105.51 1042.25 105.25 1042.25 104.94Z" fill="white"/>
<path d="M1003.03 188.43C1003.03 188.12 1003.29 187.86 1003.6 187.86C1003.92 187.86 1004.18 188.12 1004.18 188.43C1004.18 188.74 1003.92 189 1003.6 189C1003.29 189 1003.03 188.74 1003.03 188.43Z" fill="white"/>
<path d="M944.2 125.81C944.2 125.49 944.46 125.24 944.77 125.24C945.09 125.24 945.35 125.49 945.35 125.81C945.35 126.12 945.09 126.38 944.77 126.38C944.46 126.38 944.2 126.12 944.2 125.81Z" fill="white"/>
<path d="M924.59 188.43C924.59 188.12 924.84 187.86 925.15 187.86C925.47 187.86 925.73 188.12 925.73 188.43C925.73 188.74 925.47 189 925.15 189C924.84 189 924.59 188.74 924.59 188.43Z" fill="white"/>
<path d="M924.59 167.56C924.59 167.25 924.84 166.99 925.15 166.99C925.47 166.99 925.73 167.25 925.73 167.56C925.73 167.87 925.47 168.13 925.15 168.13C924.84 168.13 924.59 167.87 924.59 167.56Z" fill="white"/>
<path d="M924.59 146.68C924.59 146.37 924.84 146.11 925.15 146.11C925.47 146.11 925.73 146.37 925.73 146.68C925.73 146.99 925.47 147.25 925.15 147.25C924.84 147.25 924.59 146.99 924.59 146.68Z" fill="white"/>
<path d="M924.59 125.81C924.59 125.5 924.84 125.24 925.15 125.24C925.47 125.24 925.73 125.5 925.73 125.81C925.73 126.12 925.47 126.37 925.15 126.37C924.84 126.37 924.59 126.12 924.59 125.81Z" fill="white"/>
<path d="M924.59 104.94C924.59 104.63 924.84 104.37 925.15 104.37C925.47 104.37 925.73 104.63 925.73 104.94C925.73 105.25 925.47 105.51 925.15 105.51C924.84 105.51 924.59 105.25 924.59 104.94Z" fill="white"/>
<path d="M904.98 209.3C904.98 208.98 905.23 208.73 905.54 208.73C905.86 208.73 906.11 208.98 906.11 209.3C906.11 209.61 905.86 209.87 905.54 209.87C905.23 209.87 904.98 209.61 904.98 209.3Z" fill="white"/>
<path d="M904.98 188.43C904.98 188.12 905.23 187.86 905.54 187.86C905.86 187.86 906.11 188.12 906.11 188.43C906.11 188.75 905.86 189 905.54 189C905.23 189 904.98 188.75 904.98 188.43Z" fill="white"/>
<path d="M826.54 146.68C826.54 146.37 826.8 146.11 827.12 146.11C827.43 146.11 827.69 146.37 827.69 146.68C827.69 146.99 827.43 147.25 827.12 147.25C826.8 147.25 826.54 146.99 826.54 146.68Z" fill="white"/>
<path d="M806.93 209.3C806.93 208.99 807.18 208.73 807.49 208.73C807.81 208.73 808.07 208.99 808.07 209.3C808.07 209.61 807.81 209.87 807.49 209.87C807.18 209.87 806.93 209.61 806.93 209.3Z" fill="white"/>
<path d="M806.93 84.06C806.93 83.75 807.18 83.5 807.49 83.5C807.81 83.5 808.07 83.75 808.07 84.06C808.07 84.38 807.81 84.64 807.49 84.64C807.18 84.64 806.93 84.38 806.93 84.06Z" fill="white"/>
<path d="M767.71 104.94C767.71 104.63 767.97 104.37 768.28 104.37C768.6 104.37 768.86 104.63 768.86 104.94C768.86 105.25 768.6 105.51 768.28 105.51C767.97 105.51 767.71 105.25 767.71 104.94Z" fill="white"/>
<path d="M708.88 104.94C708.88 104.63 709.13 104.37 709.45 104.37C709.76 104.37 710.01 104.63 710.01 104.94C710.01 105.25 709.76 105.51 709.45 105.51C709.13 105.51 708.88 105.25 708.88 104.94Z" fill="white"/>
<path d="M689.27 0.570007C689.27 0.260007 689.53 0 689.84 0C690.16 0 690.41 0.260007 690.41 0.570007C690.41 0.880007 690.16 1.14 689.84 1.14C689.53 1.14 689.27 0.880007 689.27 0.570007Z" fill="white"/>
<path d="M669.66 104.94C669.66 104.63 669.92 104.37 670.24 104.37C670.55 104.37 670.81 104.63 670.81 104.94C670.81 105.25 670.55 105.51 670.24 105.51C669.92 105.51 669.66 105.25 669.66 104.94Z" fill="white"/>
<path d="M669.66 0.570007C669.66 0.260007 669.92 0 670.24 0C670.55 0 670.81 0.260007 670.81 0.570007C670.81 0.890007 670.55 1.14 670.24 1.14C669.92 1.14 669.66 0.890007 669.66 0.570007Z" fill="white"/>
<path d="M650.05 251.05C650.05 250.74 650.31 250.48 650.62 250.48C650.94 250.48 651.19 250.74 651.19 251.05C651.19 251.36 650.94 251.62 650.62 251.62C650.31 251.62 650.05 251.36 650.05 251.05Z" fill="white"/>
<path d="M591.22 84.06C591.22 83.75 591.48 83.49 591.79 83.49C592.11 83.49 592.37 83.75 592.37 84.06C592.37 84.38 592.11 84.63 591.79 84.63C591.48 84.63 591.22 84.38 591.22 84.06Z" fill="white"/>
<path d="M1120.69 292.8C1120.69 292.49 1120.94 292.23 1121.25 292.23C1121.57 292.23 1121.82 292.49 1121.82 292.8C1121.82 293.11 1121.57 293.37 1121.25 293.37C1120.94 293.37 1120.69 293.11 1120.69 292.8Z" fill="white"/>
<path d="M1042.25 146.68C1042.25 146.37 1042.51 146.11 1042.82 146.11C1043.13 146.11 1043.39 146.37 1043.39 146.68C1043.39 146.99 1043.13 147.25 1042.82 147.25C1042.51 147.25 1042.25 146.99 1042.25 146.68Z" fill="white"/>
<path d="M1003.03 209.3C1003.03 208.99 1003.29 208.73 1003.6 208.73C1003.92 208.73 1004.18 208.99 1004.18 209.3C1004.18 209.61 1003.92 209.87 1003.6 209.87C1003.29 209.87 1003.03 209.61 1003.03 209.3Z" fill="white"/>
<path d="M983.42 146.68C983.42 146.37 983.68 146.11 983.99 146.11C984.31 146.11 984.56 146.37 984.56 146.68C984.56 146.99 984.31 147.25 983.99 147.25C983.68 147.25 983.42 146.99 983.42 146.68Z" fill="white"/>
<path d="M963.82 125.81C963.82 125.49 964.07 125.24 964.39 125.24C964.7 125.24 964.95 125.49 964.95 125.81C964.95 126.12 964.7 126.38 964.39 126.38C964.07 126.38 963.82 126.12 963.82 125.81Z" fill="white"/>
<path d="M944.2 146.68C944.2 146.37 944.46 146.11 944.77 146.11C945.09 146.11 945.35 146.37 945.35 146.68C945.35 146.99 945.09 147.25 944.77 147.25C944.46 147.25 944.2 146.99 944.2 146.68Z" fill="white"/>
<path d="M924.59 230.18C924.59 229.87 924.84 229.61 925.15 229.61C925.47 229.61 925.73 229.87 925.73 230.18C925.73 230.5 925.47 230.76 925.15 230.76C924.84 230.76 924.59 230.5 924.59 230.18Z" fill="white"/>
<path d="M904.98 167.56C904.98 167.25 905.23 166.99 905.54 166.99C905.86 166.99 906.11 167.25 906.11 167.56C906.11 167.87 905.86 168.13 905.54 168.13C905.23 168.13 904.98 167.87 904.98 167.56Z" fill="white"/>
<path d="M904.98 125.81C904.98 125.49 905.23 125.23 905.54 125.23C905.86 125.23 906.11 125.49 906.11 125.81C906.11 126.12 905.86 126.38 905.54 126.38C905.23 126.38 904.98 126.12 904.98 125.81Z" fill="white"/>
<path d="M865.76 209.3C865.76 208.99 866.01 208.73 866.32 208.73C866.64 208.73 866.89 208.99 866.89 209.3C866.89 209.61 866.64 209.87 866.32 209.87C866.01 209.87 865.76 209.61 865.76 209.3Z" fill="white"/>
<path d="M865.76 104.94C865.76 104.63 866.01 104.37 866.32 104.37C866.64 104.37 866.89 104.63 866.89 104.94C866.89 105.25 866.64 105.51 866.32 105.51C866.01 105.51 865.76 105.25 865.76 104.94Z" fill="white"/>
<path d="M806.93 125.81C806.93 125.5 807.18 125.25 807.49 125.25C807.81 125.25 808.07 125.5 808.07 125.81C808.07 126.13 807.81 126.39 807.49 126.39C807.18 126.39 806.93 126.13 806.93 125.81Z" fill="white"/>
<path d="M787.32 104.94C787.32 104.63 787.58 104.37 787.89 104.37C788.21 104.37 788.46 104.63 788.46 104.94C788.46 105.25 788.21 105.51 787.89 105.51C787.58 105.51 787.32 105.25 787.32 104.94Z" fill="white"/>
<path d="M767.71 84.07C767.71 83.75 767.97 83.5 768.28 83.5C768.6 83.5 768.86 83.75 768.86 84.07C768.86 84.38 768.6 84.64 768.28 84.64C767.97 84.64 767.71 84.38 767.71 84.07Z" fill="white"/>
<path d="M748.1 84.07C748.1 83.75 748.36 83.5 748.67 83.5C748.99 83.5 749.24 83.75 749.24 84.07C749.24 84.38 748.99 84.64 748.67 84.64C748.36 84.64 748.1 84.38 748.1 84.07Z" fill="white"/>
<path d="M728.49 125.81C728.49 125.49 728.74 125.24 729.06 125.24C729.37 125.24 729.62 125.49 729.62 125.81C729.62 126.12 729.37 126.37 729.06 126.37C728.74 126.37 728.49 126.12 728.49 125.81Z" fill="white"/>
<path d="M689.27 251.05C689.27 250.74 689.53 250.48 689.84 250.48C690.16 250.48 690.41 250.74 690.41 251.05C690.41 251.36 690.16 251.62 689.84 251.62C689.53 251.62 689.27 251.36 689.27 251.05Z" fill="white"/>
<path d="M669.66 21.45C669.66 21.14 669.92 20.88 670.24 20.88C670.55 20.88 670.81 21.14 670.81 21.45C670.81 21.76 670.55 22.02 670.24 22.02C669.92 22.02 669.66 21.76 669.66 21.45Z" fill="white"/>
<path d="M650.05 271.93C650.05 271.61 650.31 271.36 650.62 271.36C650.94 271.36 651.19 271.61 651.19 271.93C651.19 272.24 650.94 272.5 650.62 272.5C650.31 272.5 650.05 272.24 650.05 271.93Z" fill="white"/>
<path d="M610.83 42.32C610.83 42.01 611.09 41.75 611.4 41.75C611.72 41.75 611.98 42.01 611.98 42.32C611.98 42.63 611.72 42.89 611.4 42.89C611.09 42.89 610.83 42.63 610.83 42.32Z" fill="white"/>
<path d="M571.61 42.32C571.61 42.01 571.86 41.75 572.18 41.75C572.49 41.75 572.75 42.01 572.75 42.32C572.75 42.63 572.49 42.89 572.18 42.89C571.86 42.89 571.61 42.63 571.61 42.32Z" fill="white"/>
<path d="M1101.08 167.56C1101.08 167.25 1101.34 166.99 1101.65 166.99C1101.96 166.99 1102.23 167.25 1102.23 167.56C1102.23 167.87 1101.97 168.13 1101.65 168.13C1101.34 168.13 1101.08 167.87 1101.08 167.56Z" fill="white"/>
<path d="M1081.47 334.54C1081.47 334.23 1081.73 333.97 1082.04 333.97C1082.36 333.97 1082.61 334.23 1082.61 334.54C1082.61 334.85 1082.36 335.12 1082.04 335.12C1081.73 335.12 1081.47 334.86 1081.47 334.54Z" fill="white"/>
<path d="M1061.87 313.67C1061.87 313.35 1062.12 313.1 1062.44 313.1C1062.75 313.1 1063.01 313.35 1063.01 313.67C1063.01 313.98 1062.75 314.24 1062.44 314.24C1062.12 314.24 1061.87 313.98 1061.87 313.67Z" fill="white"/>
<path d="M1042.25 251.05C1042.25 250.74 1042.51 250.48 1042.82 250.48C1043.13 250.48 1043.39 250.74 1043.39 251.05C1043.39 251.36 1043.13 251.62 1042.82 251.62C1042.51 251.62 1042.25 251.36 1042.25 251.05Z" fill="white"/>
<path d="M983.42 230.18C983.42 229.86 983.68 229.6 983.99 229.6C984.31 229.6 984.56 229.86 984.56 230.18C984.56 230.49 984.31 230.75 983.99 230.75C983.68 230.75 983.42 230.49 983.42 230.18Z" fill="white"/>
<path d="M983.42 188.43C983.42 188.12 983.68 187.86 983.99 187.86C984.31 187.86 984.56 188.12 984.56 188.43C984.56 188.74 984.31 189 983.99 189C983.68 189 983.42 188.74 983.42 188.43Z" fill="white"/>
<path d="M983.42 104.94C983.42 104.63 983.68 104.37 983.99 104.37C984.31 104.37 984.56 104.63 984.56 104.94C984.56 105.25 984.31 105.51 983.99 105.51C983.68 105.51 983.42 105.25 983.42 104.94Z" fill="white"/>
<path d="M944.2 188.43C944.2 188.12 944.46 187.86 944.77 187.86C945.09 187.86 945.35 188.12 945.35 188.43C945.35 188.74 945.09 189 944.77 189C944.46 189 944.2 188.74 944.2 188.43Z" fill="white"/>
<path d="M904.98 146.68C904.98 146.37 905.23 146.11 905.54 146.11C905.86 146.11 906.11 146.37 906.11 146.68C906.11 146.99 905.86 147.25 905.54 147.25C905.23 147.25 904.98 146.99 904.98 146.68Z" fill="white"/>
<path d="M904.98 104.94C904.98 104.63 905.23 104.37 905.54 104.37C905.86 104.37 906.11 104.63 906.11 104.94C906.11 105.25 905.86 105.51 905.54 105.51C905.23 105.51 904.98 105.25 904.98 104.94Z" fill="white"/>
<path d="M137.27 407.69C137.27 407.38 137.53 407.12 137.84 407.12C138.16 407.12 138.42 407.38 138.42 407.69C138.42 408 138.16 408.26 137.84 408.26C137.53 408.26 137.27 408 137.27 407.69Z" fill="white"/>
<path d="M137.27 386.81C137.27 386.5 137.53 386.24 137.84 386.24C138.16 386.24 138.42 386.5 138.42 386.81C138.42 387.12 138.16 387.38 137.84 387.38C137.53 387.38 137.27 387.12 137.27 386.81Z" fill="white"/>
<path d="M137.27 365.94C137.27 365.62 137.53 365.37 137.84 365.37C138.16 365.37 138.42 365.62 138.42 365.94C138.42 366.25 138.16 366.51 137.84 366.51C137.53 366.51 137.27 366.25 137.27 365.94Z" fill="white"/>
<path d="M137.27 345.07C137.27 344.76 137.53 344.5 137.84 344.5C138.16 344.5 138.42 344.76 138.42 345.07C138.42 345.38 138.16 345.64 137.84 345.64C137.53 345.64 137.27 345.38 137.27 345.07Z" fill="white"/>
<path d="M117.66 428.56C117.66 428.25 117.91 427.99 118.22 427.99C118.54 427.99 118.79 428.25 118.79 428.56C118.79 428.87 118.54 429.13 118.22 429.13C117.91 429.13 117.66 428.87 117.66 428.56Z" fill="white"/>
<path d="M117.66 407.69C117.66 407.38 117.91 407.12 118.22 407.12C118.54 407.12 118.79 407.38 118.79 407.69C118.79 408 118.54 408.26 118.22 408.26C117.91 408.26 117.66 408 117.66 407.69Z" fill="white"/>
<path d="M117.66 386.81C117.66 386.5 117.91 386.24 118.22 386.24C118.54 386.24 118.79 386.5 118.79 386.81C118.79 387.13 118.54 387.38 118.22 387.38C117.91 387.38 117.66 387.13 117.66 386.81Z" fill="white"/>
<path d="M117.66 365.94C117.66 365.62 117.91 365.37 118.22 365.37C118.54 365.37 118.79 365.62 118.79 365.94C118.79 366.25 118.54 366.51 118.22 366.51C117.91 366.51 117.66 366.25 117.66 365.94Z" fill="white"/>
<path d="M117.66 345.07C117.66 344.76 117.91 344.5 118.22 344.5C118.54 344.5 118.79 344.76 118.79 345.07C118.79 345.39 118.54 345.64 118.22 345.64C117.91 345.64 117.66 345.39 117.66 345.07Z" fill="white"/>
<path d="M98.05 407.69C98.05 407.38 98.31 407.12 98.62 407.12C98.94 407.12 99.19 407.38 99.19 407.69C99.19 408 98.94 408.26 98.62 408.26C98.31 408.26 98.05 408 98.05 407.69Z" fill="white"/>
<path d="M78.4399 428.56C78.4399 428.25 78.7 427.99 79.02 427.99C79.33 427.99 79.59 428.25 79.59 428.56C79.59 428.87 79.33 429.13 79.02 429.13C78.7 429.13 78.4399 428.87 78.4399 428.56Z" fill="white"/>
<path d="M78.4399 407.69C78.4399 407.38 78.7 407.12 79.02 407.12C79.33 407.12 79.59 407.38 79.59 407.69C79.59 408 79.33 408.26 79.02 408.26C78.7 408.26 78.4399 408 78.4399 407.69Z" fill="white"/>
<path d="M78.4399 386.81C78.4399 386.5 78.7 386.24 79.02 386.24C79.33 386.24 79.59 386.5 79.59 386.81C79.59 387.12 79.33 387.39 79.02 387.39C78.7 387.39 78.4399 387.13 78.4399 386.81Z" fill="white"/>
<path d="M78.4399 365.94C78.4399 365.63 78.7 365.37 79.02 365.37C79.33 365.37 79.59 365.63 79.59 365.94C79.59 366.25 79.33 366.51 79.02 366.51C78.7 366.51 78.4399 366.25 78.4399 365.94Z" fill="white"/>
<path d="M78.4399 345.07C78.4399 344.76 78.7 344.5 79.02 344.5C79.33 344.5 79.59 344.76 79.59 345.07C79.59 345.38 79.33 345.64 79.02 345.64C78.7 345.64 78.4399 345.38 78.4399 345.07Z" fill="white"/>
<path d="M58.8301 428.56C58.8301 428.24 59.0801 427.99 59.3901 427.99C59.7101 427.99 59.9701 428.24 59.9701 428.56C59.9701 428.87 59.7101 429.13 59.3901 429.13C59.0801 429.13 58.8301 428.87 58.8301 428.56Z" fill="white"/>
<path d="M58.8301 386.81C58.8301 386.5 59.0801 386.24 59.3901 386.24C59.7101 386.24 59.9701 386.5 59.9701 386.81C59.9701 387.13 59.7101 387.38 59.3901 387.38C59.0801 387.38 58.8301 387.13 58.8301 386.81Z" fill="white"/>
<path d="M58.8301 365.94C58.8301 365.63 59.0801 365.37 59.3901 365.37C59.7101 365.37 59.9701 365.63 59.9701 365.94C59.9701 366.25 59.7101 366.51 59.3901 366.51C59.0801 366.51 58.8301 366.25 58.8301 365.94Z" fill="white"/>
<path d="M58.8301 345.07C58.8301 344.76 59.0801 344.5 59.3901 344.5C59.7101 344.5 59.9701 344.76 59.9701 345.07C59.9701 345.39 59.7101 345.64 59.3901 345.64C59.0801 345.64 58.8301 345.39 58.8301 345.07Z" fill="white"/>
<path d="M39.22 407.69C39.22 407.38 39.48 407.12 39.79 407.12C40.11 407.12 40.36 407.38 40.36 407.69C40.36 408 40.11 408.26 39.79 408.26C39.48 408.26 39.22 408 39.22 407.69Z" fill="white"/>
<path d="M39.22 365.94C39.22 365.63 39.48 365.37 39.79 365.37C40.11 365.37 40.36 365.63 40.36 365.94C40.36 366.25 40.11 366.51 39.79 366.51C39.48 366.51 39.22 366.25 39.22 365.94Z" fill="white"/>
<path d="M39.22 324.2C39.22 323.88 39.48 323.63 39.79 323.63C40.11 323.63 40.36 323.88 40.36 324.2C40.36 324.51 40.11 324.77 39.79 324.77C39.48 324.77 39.22 324.51 39.22 324.2Z" fill="white"/>
<path d="M19.6101 386.81C19.6101 386.5 19.8701 386.24 20.1801 386.24C20.5001 386.24 20.7601 386.5 20.7601 386.81C20.7601 387.13 20.5001 387.38 20.1801 387.38C19.8701 387.38 19.6101 387.13 19.6101 386.81Z" fill="white"/>
<path d="M19.6101 345.07C19.6101 344.76 19.8701 344.5 20.1801 344.5C20.5001 344.5 20.7601 344.76 20.7601 345.07C20.7601 345.39 20.5001 345.64 20.1801 345.64C19.8701 345.64 19.6101 345.39 19.6101 345.07Z" fill="white"/>
<path d="M19.6101 324.2C19.6101 323.89 19.8701 323.63 20.1801 323.63C20.5001 323.63 20.7601 323.89 20.7601 324.2C20.7601 324.51 20.5001 324.77 20.1801 324.77C19.8701 324.77 19.6101 324.51 19.6101 324.2Z" fill="white"/>
<path d="M0 386.82C0 386.5 0.260007 386.25 0.570007 386.25C0.890007 386.25 1.14001 386.5 1.14001 386.82C1.14001 387.13 0.890007 387.39 0.570007 387.39C0.260007 387.39 0 387.13 0 386.82Z" fill="white"/>
<path d="M0 345.07C0 344.76 0.260007 344.5 0.570007 344.5C0.890007 344.5 1.14001 344.76 1.14001 345.07C1.14001 345.38 0.890007 345.64 0.570007 345.64C0.260007 345.64 0 345.38 0 345.07Z" fill="white"/>
<path d="M0 324.2C0 323.88 0.260007 323.63 0.570007 323.63C0.890007 323.63 1.14001 323.88 1.14001 324.2C1.14001 324.51 0.890007 324.77 0.570007 324.77C0.260007 324.77 0 324.51 0 324.2Z" fill="white"/>
<path d="M372.59 324.2C372.59 323.88 372.84 323.63 373.15 323.63C373.47 323.63 373.72 323.88 373.72 324.2C373.72 324.51 373.47 324.77 373.15 324.77C372.84 324.77 372.59 324.51 372.59 324.2Z" fill="white"/>
<path d="M372.59 303.32C372.59 303.01 372.84 302.75 373.15 302.75C373.47 302.75 373.72 303.01 373.72 303.32C373.72 303.63 373.47 303.89 373.15 303.89C372.84 303.89 372.59 303.63 372.59 303.32Z" fill="white"/>
<path d="M372.59 282.45C372.59 282.13 372.84 281.87 373.15 281.87C373.47 281.87 373.72 282.13 373.72 282.45C373.72 282.76 373.47 283.02 373.15 283.02C372.84 283.02 372.59 282.76 372.59 282.45Z" fill="white"/>
<path d="M352.98 324.2C352.98 323.88 353.24 323.63 353.55 323.63C353.86 323.63 354.13 323.88 354.13 324.2C354.13 324.51 353.87 324.77 353.55 324.77C353.24 324.77 352.98 324.51 352.98 324.2Z" fill="white"/>
<path d="M352.98 282.45C352.98 282.13 353.24 281.88 353.55 281.88C353.86 281.88 354.13 282.13 354.13 282.45C354.13 282.76 353.87 283.01 353.55 283.01C353.24 283.01 352.98 282.76 352.98 282.45Z" fill="white"/>
<path d="M352.98 261.57C352.98 261.25 353.24 261 353.55 261C353.86 261 354.13 261.25 354.13 261.57C354.13 261.88 353.87 262.14 353.55 262.14C353.24 262.14 352.98 261.88 352.98 261.57Z" fill="white"/>
<path d="M333.37 324.2C333.37 323.89 333.63 323.63 333.94 323.63C334.26 323.63 334.51 323.89 334.51 324.2C334.51 324.51 334.26 324.77 333.94 324.77C333.63 324.77 333.37 324.51 333.37 324.2Z" fill="white"/>
<path d="M333.37 303.32C333.37 303.01 333.63 302.75 333.94 302.75C334.26 302.75 334.51 303.01 334.51 303.32C334.51 303.63 334.26 303.89 333.94 303.89C333.63 303.89 333.37 303.63 333.37 303.32Z" fill="white"/>
<path d="M333.37 282.45C333.37 282.13 333.63 281.88 333.94 281.88C334.26 281.88 334.51 282.13 334.51 282.45C334.51 282.76 334.26 283.02 333.94 283.02C333.63 283.02 333.37 282.76 333.37 282.45Z" fill="white"/>
<path d="M333.37 261.57C333.37 261.26 333.63 261 333.94 261C334.26 261 334.51 261.26 334.51 261.57C334.51 261.88 334.26 262.14 333.94 262.14C333.63 262.14 333.37 261.88 333.37 261.57Z" fill="white"/>
<path d="M313.77 470.31C313.77 469.99 314.02 469.74 314.34 469.74C314.65 469.74 314.91 469.99 314.91 470.31C314.91 470.62 314.65 470.88 314.34 470.88C314.02 470.88 313.77 470.62 313.77 470.31Z" fill="white"/>
<path d="M313.77 449.43C313.77 449.12 314.02 448.86 314.34 448.86C314.65 448.86 314.91 449.12 314.91 449.43C314.91 449.74 314.65 450 314.34 450C314.02 450 313.77 449.74 313.77 449.43Z" fill="white"/>
<path d="M313.77 303.32C313.77 303.01 314.02 302.75 314.34 302.75C314.65 302.75 314.91 303.01 314.91 303.32C314.91 303.63 314.65 303.89 314.34 303.89C314.02 303.89 313.77 303.63 313.77 303.32Z" fill="white"/>
<path d="M313.77 282.45C313.77 282.13 314.02 281.88 314.34 281.88C314.65 281.88 314.91 282.13 314.91 282.45C314.91 282.76 314.65 283.01 314.34 283.01C314.02 283.01 313.77 282.76 313.77 282.45Z" fill="white"/>
<path d="M313.77 261.57C313.77 261.25 314.02 261 314.34 261C314.65 261 314.91 261.25 314.91 261.57C314.91 261.88 314.65 262.14 314.34 262.14C314.02 262.14 313.77 261.88 313.77 261.57Z" fill="white"/>
<path d="M294.15 491.18C294.15 490.87 294.41 490.61 294.72 490.61C295.03 490.61 295.29 490.87 295.29 491.18C295.29 491.5 295.03 491.75 294.72 491.75C294.41 491.75 294.15 491.5 294.15 491.18Z" fill="white"/>
<path d="M294.15 470.31C294.15 470 294.41 469.74 294.72 469.74C295.03 469.74 295.29 470 295.29 470.31C295.29 470.62 295.03 470.88 294.72 470.88C294.41 470.88 294.15 470.62 294.15 470.31Z" fill="white"/>
<path d="M294.15 449.43C294.15 449.12 294.41 448.86 294.72 448.86C295.03 448.86 295.29 449.12 295.29 449.43C295.29 449.74 295.03 450 294.72 450C294.41 450 294.15 449.74 294.15 449.43Z" fill="white"/>
<path d="M294.15 428.56C294.15 428.24 294.41 427.99 294.72 427.99C295.03 427.99 295.29 428.24 295.29 428.56C295.29 428.87 295.03 429.13 294.72 429.13C294.41 429.13 294.15 428.87 294.15 428.56Z" fill="white"/>
<path d="M294.15 407.69C294.15 407.38 294.41 407.12 294.72 407.12C295.03 407.12 295.29 407.38 295.29 407.69C295.29 408 295.03 408.26 294.72 408.26C294.41 408.26 294.15 408 294.15 407.69Z" fill="white"/>
<path d="M294.15 324.2C294.15 323.88 294.41 323.63 294.72 323.63C295.03 323.63 295.29 323.88 295.29 324.2C295.29 324.51 295.03 324.77 294.72 324.77C294.41 324.77 294.15 324.51 294.15 324.2Z" fill="white"/>
<path d="M294.15 303.32C294.15 303.01 294.41 302.75 294.72 302.75C295.03 302.75 295.29 303.01 295.29 303.32C295.29 303.63 295.03 303.89 294.72 303.89C294.41 303.89 294.15 303.63 294.15 303.32Z" fill="white"/>
<path d="M294.15 282.44C294.15 282.13 294.41 281.88 294.72 281.88C295.03 281.88 295.29 282.13 295.29 282.44C295.29 282.76 295.03 283.02 294.72 283.02C294.41 283.02 294.15 282.76 294.15 282.44Z" fill="white"/>
<path d="M294.15 261.57C294.15 261.26 294.41 261 294.72 261C295.03 261 295.29 261.26 295.29 261.57C295.29 261.88 295.03 262.14 294.72 262.14C294.41 262.14 294.15 261.88 294.15 261.57Z" fill="white"/>
<path d="M274.54 491.18C274.54 490.87 274.79 490.61 275.11 490.61C275.42 490.61 275.67 490.87 275.67 491.18C275.67 491.49 275.42 491.75 275.11 491.75C274.79 491.75 274.54 491.49 274.54 491.18Z" fill="white"/>
<path d="M274.54 470.31C274.54 469.99 274.79 469.74 275.11 469.74C275.42 469.74 275.67 469.99 275.67 470.31C275.67 470.62 275.42 470.88 275.11 470.88C274.79 470.88 274.54 470.62 274.54 470.31Z" fill="white"/>
<path d="M274.54 449.43C274.54 449.12 274.79 448.86 275.11 448.86C275.42 448.86 275.67 449.12 275.67 449.43C275.67 449.74 275.42 450 275.11 450C274.79 450 274.54 449.74 274.54 449.43Z" fill="white"/>
<path d="M274.54 428.56C274.54 428.24 274.79 427.99 275.11 427.99C275.42 427.99 275.67 428.24 275.67 428.56C275.67 428.87 275.42 429.13 275.11 429.13C274.79 429.13 274.54 428.87 274.54 428.56Z" fill="white"/>
<path d="M274.54 365.94C274.54 365.62 274.79 365.37 275.11 365.37C275.42 365.37 275.67 365.62 275.67 365.94C275.67 366.25 275.42 366.51 275.11 366.51C274.79 366.51 274.54 366.25 274.54 365.94Z" fill="white"/>
<path d="M274.54 303.32C274.54 303.01 274.79 302.75 275.11 302.75C275.42 302.75 275.67 303.01 275.67 303.32C275.67 303.63 275.42 303.89 275.11 303.89C274.79 303.89 274.54 303.63 274.54 303.32Z" fill="white"/>
<path d="M274.54 282.45C274.54 282.13 274.79 281.88 275.11 281.88C275.42 281.88 275.67 282.13 275.67 282.45C275.67 282.76 275.42 283.01 275.11 283.01C274.79 283.01 274.54 282.76 274.54 282.45Z" fill="white"/>
<path d="M274.54 261.57C274.54 261.26 274.79 261 275.11 261C275.42 261 275.67 261.26 275.67 261.57C275.67 261.88 275.42 262.14 275.11 262.14C274.79 262.14 274.54 261.88 274.54 261.57Z" fill="white"/>
<path d="M254.93 491.18C254.93 490.87 255.19 490.61 255.5 490.61C255.82 490.61 256.08 490.87 256.08 491.18C256.08 491.49 255.82 491.75 255.5 491.75C255.19 491.75 254.93 491.49 254.93 491.18Z" fill="white"/>
<path d="M254.93 470.31C254.93 470 255.19 469.74 255.5 469.74C255.82 469.74 256.08 470 256.08 470.31C256.08 470.62 255.82 470.88 255.5 470.88C255.19 470.88 254.93 470.62 254.93 470.31Z" fill="white"/>
<path d="M254.93 428.56C254.93 428.24 255.19 427.99 255.5 427.99C255.82 427.99 256.08 428.24 256.08 428.56C256.08 428.87 255.82 429.13 255.5 429.13C255.19 429.13 254.93 428.87 254.93 428.56Z" fill="white"/>
<path d="M254.93 407.69C254.93 407.38 255.19 407.12 255.5 407.12C255.82 407.12 256.08 407.38 256.08 407.69C256.08 408 255.82 408.26 255.5 408.26C255.19 408.26 254.93 408 254.93 407.69Z" fill="white"/>
<path d="M254.93 345.07C254.93 344.76 255.19 344.5 255.5 344.5C255.82 344.5 256.08 344.76 256.08 345.07C256.08 345.38 255.82 345.64 255.5 345.64C255.19 345.64 254.93 345.38 254.93 345.07Z" fill="white"/>
<path d="M254.93 324.2C254.93 323.88 255.19 323.63 255.5 323.63C255.82 323.63 256.08 323.88 256.08 324.2C256.08 324.51 255.82 324.77 255.5 324.77C255.19 324.77 254.93 324.51 254.93 324.2Z" fill="white"/>
<path d="M254.93 303.32C254.93 303.01 255.19 302.75 255.5 302.75C255.82 302.75 256.08 303.01 256.08 303.32C256.08 303.63 255.82 303.89 255.5 303.89C255.19 303.89 254.93 303.63 254.93 303.32Z" fill="white"/>
<path d="M254.93 282.45C254.93 282.13 255.19 281.88 255.5 281.88C255.82 281.88 256.08 282.13 256.08 282.45C256.08 282.76 255.82 283.02 255.5 283.02C255.19 283.02 254.93 282.76 254.93 282.45Z" fill="white"/>
<path d="M235.32 470.31C235.32 469.99 235.58 469.74 235.89 469.74C236.21 469.74 236.46 469.99 236.46 470.31C236.46 470.62 236.21 470.88 235.89 470.88C235.58 470.88 235.32 470.62 235.32 470.31Z" fill="white"/>
<path d="M235.32 449.43C235.32 449.12 235.58 448.86 235.89 448.86C236.21 448.86 236.46 449.12 236.46 449.43C236.46 449.74 236.21 450 235.89 450C235.58 450 235.32 449.74 235.32 449.43Z" fill="white"/>
<path d="M235.32 428.56C235.32 428.24 235.58 427.99 235.89 427.99C236.21 427.99 236.46 428.24 236.46 428.56C236.46 428.87 236.21 429.13 235.89 429.13C235.58 429.13 235.32 428.87 235.32 428.56Z" fill="white"/>
<path d="M235.32 407.69C235.32 407.38 235.58 407.12 235.89 407.12C236.21 407.12 236.46 407.38 236.46 407.69C236.46 408 236.21 408.26 235.89 408.26C235.58 408.26 235.32 408 235.32 407.69Z" fill="white"/>
<path d="M235.32 365.94C235.32 365.62 235.58 365.37 235.89 365.37C236.21 365.37 236.46 365.62 236.46 365.94C236.46 366.25 236.21 366.51 235.89 366.51C235.58 366.51 235.32 366.25 235.32 365.94Z" fill="white"/>
<path d="M235.32 303.32C235.32 303.01 235.58 302.75 235.89 302.75C236.21 302.75 236.46 303.01 236.46 303.32C236.46 303.63 236.21 303.89 235.89 303.89C235.58 303.89 235.32 303.63 235.32 303.32Z" fill="white"/>
<path d="M235.32 282.45C235.32 282.13 235.58 281.88 235.89 281.88C236.21 281.88 236.46 282.13 236.46 282.45C236.46 282.76 236.21 283.02 235.89 283.02C235.58 283.02 235.32 282.76 235.32 282.45Z" fill="white"/>
<path d="M235.32 261.57C235.32 261.26 235.58 261 235.89 261C236.21 261 236.46 261.26 236.46 261.57C236.46 261.88 236.21 262.14 235.89 262.14C235.58 262.14 235.32 261.88 235.32 261.57Z" fill="white"/>
<path d="M215.72 303.32C215.72 303.01 215.97 302.75 216.29 302.75C216.6 302.75 216.85 303.01 216.85 303.32C216.85 303.63 216.6 303.89 216.29 303.89C215.97 303.89 215.72 303.63 215.72 303.32Z" fill="white"/>
<path d="M215.72 261.57C215.72 261.26 215.97 261 216.29 261C216.6 261 216.85 261.26 216.85 261.57C216.85 261.88 216.6 262.14 216.29 262.14C215.97 262.14 215.72 261.88 215.72 261.57Z" fill="white"/>
<path d="M196.1 470.31C196.1 470 196.36 469.74 196.67 469.74C196.99 469.74 197.25 470 197.25 470.31C197.25 470.62 196.99 470.88 196.67 470.88C196.36 470.88 196.1 470.62 196.1 470.31Z" fill="white"/>
<path d="M196.1 428.56C196.1 428.24 196.36 427.99 196.67 427.99C196.99 427.99 197.25 428.24 197.25 428.56C197.25 428.87 196.99 429.13 196.67 429.13C196.36 429.13 196.1 428.87 196.1 428.56Z" fill="white"/>
<path d="M196.1 407.69C196.1 407.38 196.36 407.12 196.67 407.12C196.99 407.12 197.25 407.38 197.25 407.69C197.25 408 196.99 408.26 196.67 408.26C196.36 408.26 196.1 408 196.1 407.69Z" fill="white"/>
<path d="M196.1 365.94C196.1 365.63 196.36 365.37 196.67 365.37C196.99 365.37 197.25 365.63 197.25 365.94C197.25 366.25 196.99 366.51 196.67 366.51C196.36 366.51 196.1 366.25 196.1 365.94Z" fill="white"/>
<path d="M196.1 345.07C196.1 344.76 196.36 344.5 196.67 344.5C196.99 344.5 197.25 344.76 197.25 345.07C197.25 345.39 196.99 345.64 196.67 345.64C196.36 345.64 196.1 345.39 196.1 345.07Z" fill="white"/>
<path d="M196.1 303.32C196.1 303.01 196.36 302.75 196.67 302.75C196.99 302.75 197.25 303.01 197.25 303.32C197.25 303.63 196.99 303.89 196.67 303.89C196.36 303.89 196.1 303.63 196.1 303.32Z" fill="white"/>
<path d="M196.1 282.45C196.1 282.13 196.36 281.88 196.67 281.88C196.99 281.88 197.25 282.13 197.25 282.45C197.25 282.76 196.99 283.01 196.67 283.01C196.36 283.01 196.1 282.76 196.1 282.45Z" fill="white"/>
<path d="M176.49 449.43C176.49 449.12 176.74 448.86 177.05 448.86C177.37 448.86 177.63 449.12 177.63 449.43C177.63 449.75 177.37 450 177.05 450C176.74 450 176.49 449.75 176.49 449.43Z" fill="white"/>
<path d="M176.49 428.56C176.49 428.24 176.74 427.99 177.05 427.99C177.37 427.99 177.63 428.24 177.63 428.56C177.63 428.87 177.37 429.13 177.05 429.13C176.74 429.13 176.49 428.87 176.49 428.56Z" fill="white"/>
<path d="M117.66 449.43C117.66 449.12 117.91 448.86 118.22 448.86C118.54 448.86 118.79 449.12 118.79 449.43C118.79 449.74 118.54 450 118.22 450C117.91 450 117.66 449.74 117.66 449.43Z" fill="white"/>
<path d="M98.05 365.94C98.05 365.62 98.31 365.37 98.62 365.37C98.94 365.37 99.19 365.62 99.19 365.94C99.19 366.25 98.94 366.51 98.62 366.51C98.31 366.51 98.05 366.25 98.05 365.94Z" fill="white"/>
<path d="M78.4399 324.2C78.4399 323.88 78.7 323.63 79.02 323.63C79.33 323.63 79.59 323.88 79.59 324.2C79.59 324.51 79.33 324.77 79.02 324.77C78.7 324.77 78.4399 324.51 78.4399 324.2Z" fill="white"/>
<path d="M58.8301 303.32C58.8301 303.01 59.0801 302.75 59.3901 302.75C59.7101 302.75 59.9701 303.01 59.9701 303.32C59.9701 303.63 59.7101 303.89 59.3901 303.89C59.0801 303.89 58.8301 303.63 58.8301 303.32Z" fill="white"/>
<path d="M39.22 345.07C39.22 344.76 39.48 344.5 39.79 344.5C40.11 344.5 40.36 344.76 40.36 345.07C40.36 345.38 40.11 345.64 39.79 345.64C39.48 345.64 39.22 345.38 39.22 345.07Z" fill="white"/>
<path d="M19.6101 365.94C19.6101 365.63 19.8701 365.37 20.1801 365.37C20.5001 365.37 20.7601 365.63 20.7601 365.94C20.7601 366.25 20.5001 366.51 20.1801 366.51C19.8701 366.51 19.6101 366.25 19.6101 365.94Z" fill="white"/>
<path d="M0 365.94C0 365.62 0.260007 365.37 0.570007 365.37C0.890007 365.37 1.14001 365.62 1.14001 365.94C1.14001 366.25 0.890007 366.51 0.570007 366.51C0.260007 366.51 0 366.25 0 365.94Z" fill="white"/>
<path d="M352.98 303.32C352.98 303.01 353.24 302.75 353.55 302.75C353.86 302.75 354.13 303.01 354.13 303.32C354.13 303.63 353.87 303.89 353.55 303.89C353.24 303.89 352.98 303.63 352.98 303.32Z" fill="white"/>
<path d="M274.54 407.69C274.54 407.38 274.79 407.12 275.11 407.12C275.42 407.12 275.67 407.38 275.67 407.69C275.67 408 275.42 408.26 275.11 408.26C274.79 408.26 274.54 408 274.54 407.69Z" fill="white"/>
<path d="M274.54 386.81C274.54 386.5 274.79 386.24 275.11 386.24C275.42 386.24 275.67 386.5 275.67 386.81C275.67 387.12 275.42 387.38 275.11 387.38C274.79 387.38 274.54 387.12 274.54 386.81Z" fill="white"/>
<path d="M274.54 324.2C274.54 323.88 274.79 323.63 275.11 323.63C275.42 323.63 275.67 323.88 275.67 324.2C275.67 324.51 275.42 324.77 275.11 324.77C274.79 324.77 274.54 324.51 274.54 324.2Z" fill="white"/>
<path d="M254.93 449.43C254.93 449.12 255.19 448.86 255.5 448.86C255.82 448.86 256.08 449.12 256.08 449.43C256.08 449.74 255.82 450 255.5 450C255.19 450 254.93 449.74 254.93 449.43Z" fill="white"/>
<path d="M215.72 407.69C215.72 407.38 215.97 407.12 216.29 407.12C216.6 407.12 216.85 407.38 216.85 407.69C216.85 408 216.6 408.26 216.29 408.26C215.97 408.26 215.72 408 215.72 407.69Z" fill="white"/>
<path d="M215.72 324.2C215.72 323.89 215.97 323.63 216.29 323.63C216.6 323.63 216.85 323.89 216.85 324.2C216.85 324.51 216.6 324.77 216.29 324.77C215.97 324.77 215.72 324.51 215.72 324.2Z" fill="white"/>
<path d="M196.1 386.81C196.1 386.5 196.36 386.25 196.67 386.25C196.99 386.25 197.25 386.5 197.25 386.81C197.25 387.13 196.99 387.38 196.67 387.38C196.36 387.38 196.1 387.13 196.1 386.81Z" fill="white"/>
<path d="M196.1 324.2C196.1 323.88 196.36 323.63 196.67 323.63C196.99 323.63 197.25 323.88 197.25 324.2C197.25 324.51 196.99 324.77 196.67 324.77C196.36 324.77 196.1 324.51 196.1 324.2Z" fill="white"/>
<path d="M176.49 386.81C176.49 386.5 176.74 386.24 177.05 386.24C177.37 386.24 177.63 386.5 177.63 386.81C177.63 387.13 177.37 387.38 177.05 387.38C176.74 387.38 176.49 387.13 176.49 386.81Z" fill="white"/>
<path d="M176.49 345.07C176.49 344.76 176.74 344.5 177.05 344.5C177.37 344.5 177.63 344.76 177.63 345.07C177.63 345.39 177.37 345.64 177.05 345.64C176.74 345.64 176.49 345.39 176.49 345.07Z" fill="white"/>
<path d="M176.49 324.2C176.49 323.88 176.74 323.63 177.05 323.63C177.37 323.63 177.63 323.88 177.63 324.2C177.63 324.51 177.37 324.77 177.05 324.77C176.74 324.77 176.49 324.51 176.49 324.2Z" fill="white"/>
<path d="M176.49 282.44C176.49 282.13 176.74 281.88 177.05 281.88C177.37 281.88 177.63 282.13 177.63 282.44C177.63 282.76 177.37 283.02 177.05 283.02C176.74 283.02 176.49 282.76 176.49 282.44Z" fill="white"/>
<path d="M98.05 345.07C98.05 344.76 98.31 344.5 98.62 344.5C98.94 344.5 99.19 344.76 99.19 345.07C99.19 345.39 98.94 345.64 98.62 345.64C98.31 345.64 98.05 345.39 98.05 345.07Z" fill="white"/>
<path d="M19.6101 407.69C19.6101 407.38 19.8701 407.12 20.1801 407.12C20.5001 407.12 20.7601 407.38 20.7601 407.69C20.7601 408 20.5001 408.26 20.1801 408.26C19.8701 408.26 19.6101 408 19.6101 407.69Z" fill="white"/>
<path d="M372.59 261.57C372.59 261.26 372.84 261 373.15 261C373.47 261 373.72 261.26 373.72 261.57C373.72 261.88 373.47 262.14 373.15 262.14C372.84 262.14 372.59 261.88 372.59 261.57Z" fill="white"/>
<path d="M313.77 324.2C313.77 323.88 314.02 323.63 314.34 323.63C314.65 323.63 314.91 323.88 314.91 324.2C314.91 324.51 314.65 324.77 314.34 324.77C314.02 324.77 313.77 324.51 313.77 324.2Z" fill="white"/>
<path d="M294.15 345.07C294.15 344.76 294.41 344.5 294.72 344.5C295.03 344.5 295.29 344.76 295.29 345.07C295.29 345.38 295.03 345.64 294.72 345.64C294.41 345.64 294.15 345.38 294.15 345.07Z" fill="white"/>
<path d="M254.93 386.81C254.93 386.5 255.19 386.24 255.5 386.24C255.82 386.24 256.08 386.5 256.08 386.81C256.08 387.12 255.82 387.38 255.5 387.38C255.19 387.38 254.93 387.12 254.93 386.81Z" fill="white"/>
<path d="M254.93 365.94C254.93 365.62 255.19 365.37 255.5 365.37C255.82 365.37 256.08 365.62 256.08 365.94C256.08 366.25 255.82 366.51 255.5 366.51C255.19 366.51 254.93 366.25 254.93 365.94Z" fill="white"/>
<path d="M215.72 491.18C215.72 490.87 215.97 490.61 216.29 490.61C216.6 490.61 216.85 490.87 216.85 491.18C216.85 491.49 216.6 491.75 216.29 491.75C215.97 491.75 215.72 491.49 215.72 491.18Z" fill="white"/>
<path d="M215.72 428.56C215.72 428.24 215.97 427.99 216.29 427.99C216.6 427.99 216.85 428.24 216.85 428.56C216.85 428.87 216.6 429.13 216.29 429.13C215.97 429.13 215.72 428.87 215.72 428.56Z" fill="white"/>
<path d="M215.72 386.81C215.72 386.5 215.97 386.24 216.29 386.24C216.6 386.24 216.85 386.5 216.85 386.81C216.85 387.13 216.6 387.38 216.29 387.38C215.97 387.38 215.72 387.13 215.72 386.81Z" fill="white"/>
<path d="M196.1 261.57C196.1 261.26 196.36 261 196.67 261C196.99 261 197.25 261.26 197.25 261.57C197.25 261.88 196.99 262.14 196.67 262.14C196.36 262.14 196.1 261.88 196.1 261.57Z" fill="white"/>
<path d="M176.49 303.32C176.49 303.01 176.74 302.75 177.05 302.75C177.37 302.75 177.63 303.01 177.63 303.32C177.63 303.63 177.37 303.89 177.05 303.89C176.74 303.89 176.49 303.63 176.49 303.32Z" fill="white"/>
<path d="M176.49 261.57C176.49 261.25 176.74 261 177.05 261C177.37 261 177.63 261.25 177.63 261.57C177.63 261.88 177.37 262.14 177.05 262.14C176.74 262.14 176.49 261.88 176.49 261.57Z" fill="white"/>
<path d="M156.88 449.43C156.88 449.12 157.13 448.86 157.44 448.86C157.76 448.86 158.01 449.12 158.01 449.43C158.01 449.75 157.76 450 157.44 450C157.13 450 156.88 449.75 156.88 449.43Z" fill="white"/>
<path d="M156.88 428.56C156.88 428.24 157.13 427.99 157.44 427.99C157.76 427.99 158.01 428.24 158.01 428.56C158.01 428.87 157.76 429.13 157.44 429.13C157.13 429.13 156.88 428.87 156.88 428.56Z" fill="white"/>
<path d="M156.88 407.69C156.88 407.38 157.13 407.12 157.44 407.12C157.76 407.12 158.01 407.38 158.01 407.69C158.01 408 157.76 408.26 157.44 408.26C157.13 408.26 156.88 408 156.88 407.69Z" fill="white"/>
<path d="M156.88 365.94C156.88 365.63 157.13 365.37 157.44 365.37C157.76 365.37 158.01 365.63 158.01 365.94C158.01 366.25 157.76 366.51 157.44 366.51C157.13 366.51 156.88 366.25 156.88 365.94Z" fill="white"/>
<path d="M156.88 345.07C156.88 344.76 157.13 344.5 157.44 344.5C157.76 344.5 158.01 344.76 158.01 345.07C158.01 345.38 157.76 345.64 157.44 345.64C157.13 345.64 156.88 345.38 156.88 345.07Z" fill="white"/>
<path d="M156.88 324.2C156.88 323.88 157.13 323.63 157.44 323.63C157.76 323.63 158.01 323.88 158.01 324.2C158.01 324.51 157.76 324.77 157.44 324.77C157.13 324.77 156.88 324.51 156.88 324.2Z" fill="white"/>
<path d="M156.88 303.32C156.88 303.01 157.13 302.75 157.44 302.75C157.76 302.75 158.01 303.01 158.01 303.32C158.01 303.63 157.76 303.89 157.44 303.89C157.13 303.89 156.88 303.63 156.88 303.32Z" fill="white"/>
<path d="M137.27 448.68C137.27 448.36 137.53 448.11 137.84 448.11C138.16 448.11 138.42 448.36 138.42 448.68C138.42 448.99 138.16 449.25 137.84 449.25C137.53 449.25 137.27 448.99 137.27 448.68Z" fill="white"/>
<path d="M98.05 448.68C98.05 448.36 98.31 448.11 98.62 448.11C98.94 448.11 99.19 448.36 99.19 448.68C99.19 448.99 98.94 449.25 98.62 449.25C98.31 449.25 98.05 448.99 98.05 448.68Z" fill="white"/>
<path d="M58.8301 344.32C58.8301 344 59.0801 343.75 59.3901 343.75C59.7101 343.75 59.9701 344 59.9701 344.32C59.9701 344.63 59.7101 344.89 59.3901 344.89C59.0801 344.89 58.8301 344.63 58.8301 344.32Z" fill="white"/>
<path d="M39.2202 323.44C39.2202 323.13 39.4802 322.87 39.7902 322.87C40.1102 322.87 40.3602 323.13 40.3602 323.44C40.3602 323.75 40.1102 324.01 39.7902 324.01C39.4802 324.01 39.2202 323.75 39.2202 323.44Z" fill="white"/>
<path d="M19.6101 323.44C19.6101 323.13 19.8701 322.87 20.1801 322.87C20.5001 322.87 20.7601 323.13 20.7601 323.44C20.7601 323.75 20.5001 324.01 20.1801 324.01C19.8701 324.01 19.6101 323.75 19.6101 323.44Z" fill="white"/>
<path d="M313.77 448.68C313.77 448.36 314.02 448.11 314.34 448.11C314.65 448.11 314.91 448.36 314.91 448.68C314.91 448.99 314.65 449.25 314.34 449.25C314.02 449.25 313.77 448.99 313.77 448.68Z" fill="white"/>
<path d="M313.77 365.19C313.77 364.88 314.02 364.62 314.34 364.62C314.65 364.62 314.91 364.88 314.91 365.19C314.91 365.51 314.65 365.76 314.34 365.76C314.02 365.76 313.77 365.51 313.77 365.19Z" fill="white"/>
<path d="M274.54 365.19C274.54 364.88 274.79 364.62 275.11 364.62C275.42 364.62 275.67 364.88 275.67 365.19C275.67 365.5 275.42 365.76 275.11 365.76C274.79 365.76 274.54 365.5 274.54 365.19Z" fill="white"/>
<path d="M235.32 344.32C235.32 344 235.58 343.75 235.89 343.75C236.21 343.75 236.46 344 236.46 344.32C236.46 344.63 236.21 344.89 235.89 344.89C235.58 344.89 235.32 344.63 235.32 344.32Z" fill="white"/>
<path d="M215.72 386.06C215.72 385.74 215.97 385.49 216.29 385.49C216.6 385.49 216.85 385.74 216.85 386.06C216.85 386.37 216.6 386.63 216.29 386.63C215.97 386.63 215.72 386.37 215.72 386.06Z" fill="white"/>
<path d="M215.72 365.19C215.72 364.88 215.97 364.62 216.29 364.62C216.6 364.62 216.85 364.88 216.85 365.19C216.85 365.51 216.6 365.76 216.29 365.76C215.97 365.76 215.72 365.51 215.72 365.19Z" fill="white"/>
<path d="M215.72 302.57C215.72 302.25 215.97 302 216.29 302C216.6 302 216.85 302.25 216.85 302.57C216.85 302.88 216.6 303.14 216.29 303.14C215.97 303.14 215.72 302.88 215.72 302.57Z" fill="white"/>
<path d="M196.1 469.55C196.1 469.24 196.36 468.98 196.67 468.98C196.99 468.98 197.25 469.24 197.25 469.55C197.25 469.87 196.99 470.12 196.67 470.12C196.36 470.12 196.1 469.87 196.1 469.55Z" fill="white"/>
<path d="M156.88 302.57C156.88 302.25 157.13 302 157.44 302C157.76 302 158.01 302.25 158.01 302.57C158.01 302.88 157.76 303.14 157.44 303.14C157.13 303.14 156.88 302.88 156.88 302.57Z" fill="white"/>
<path d="M137.27 449.43C137.27 449.12 137.53 448.86 137.84 448.86C138.16 448.86 138.42 449.12 138.42 449.43C138.42 449.74 138.16 450 137.84 450C137.53 450 137.27 449.74 137.27 449.43Z" fill="white"/>
<path d="M98.05 449.43C98.05 449.12 98.31 448.86 98.62 448.86C98.94 448.86 99.19 449.12 99.19 449.43C99.19 449.75 98.94 450 98.62 450C98.31 450 98.05 449.75 98.05 449.43Z" fill="white"/>
<path d="M98.05 386.81C98.05 386.5 98.31 386.25 98.62 386.25C98.94 386.25 99.19 386.5 99.19 386.81C99.19 387.12 98.94 387.38 98.62 387.38C98.31 387.38 98.05 387.12 98.05 386.81Z" fill="white"/>
<path d="M58.8301 407.69C58.8301 407.38 59.0801 407.12 59.3901 407.12C59.7101 407.12 59.9701 407.38 59.9701 407.69C59.9701 408 59.7101 408.26 59.3901 408.26C59.0801 408.26 58.8301 408 58.8301 407.69Z" fill="white"/>
<path d="M39.22 386.81C39.22 386.5 39.48 386.24 39.79 386.24C40.11 386.24 40.36 386.5 40.36 386.81C40.36 387.12 40.11 387.38 39.79 387.38C39.48 387.38 39.22 387.12 39.22 386.81Z" fill="white"/>
<path d="M254.93 261.57C254.93 261.26 255.19 261 255.5 261C255.82 261 256.08 261.26 256.08 261.57C256.08 261.88 255.82 262.14 255.5 262.14C255.19 262.14 254.93 261.88 254.93 261.57Z" fill="white"/>
<path d="M235.32 491.18C235.32 490.87 235.58 490.61 235.89 490.61C236.21 490.61 236.46 490.87 236.46 491.18C236.46 491.49 236.21 491.75 235.89 491.75C235.58 491.75 235.32 491.49 235.32 491.18Z" fill="white"/>
<path d="M235.32 386.81C235.32 386.5 235.58 386.24 235.89 386.24C236.21 386.24 236.46 386.5 236.46 386.81C236.46 387.13 236.21 387.38 235.89 387.38C235.58 387.38 235.32 387.13 235.32 386.81Z" fill="white"/>
<path d="M235.32 345.07C235.32 344.76 235.58 344.5 235.89 344.5C236.21 344.5 236.46 344.76 236.46 345.07C236.46 345.39 236.21 345.64 235.89 345.64C235.58 345.64 235.32 345.39 235.32 345.07Z" fill="white"/>
<path d="M215.72 470.31C215.72 470 215.97 469.74 216.29 469.74C216.6 469.74 216.85 470 216.85 470.31C216.85 470.62 216.6 470.88 216.29 470.88C215.97 470.88 215.72 470.62 215.72 470.31Z" fill="white"/>
<path d="M215.72 449.43C215.72 449.12 215.97 448.86 216.29 448.86C216.6 448.86 216.85 449.12 216.85 449.43C216.85 449.75 216.6 450 216.29 450C215.97 450 215.72 449.75 215.72 449.43Z" fill="white"/>
<path d="M176.49 407.69C176.49 407.38 176.74 407.12 177.05 407.12C177.37 407.12 177.63 407.38 177.63 407.69C177.63 408 177.37 408.26 177.05 408.26C176.74 408.26 176.49 408 176.49 407.69Z" fill="white"/>
<path d="M176.49 365.94C176.49 365.62 176.74 365.37 177.05 365.37C177.37 365.37 177.63 365.62 177.63 365.94C177.63 366.25 177.37 366.51 177.05 366.51C176.74 366.51 176.49 366.25 176.49 365.94Z" fill="white"/>
<path d="M156.88 386.81C156.88 386.5 157.13 386.24 157.44 386.24C157.76 386.24 158.01 386.5 158.01 386.81C158.01 387.13 157.76 387.38 157.44 387.38C157.13 387.38 156.88 387.13 156.88 386.81Z" fill="white"/>
<path d="M156.88 261.57C156.88 261.26 157.13 261 157.44 261C157.76 261 158.01 261.26 158.01 261.57C158.01 261.88 157.76 262.14 157.44 262.14C157.13 262.14 156.88 261.88 156.88 261.57Z" fill="white"/>
</svg>
