<svg width="33" height="32" viewBox="0 0 33 32" fill="none" xmlns="http://www.w3.org/2000/svg">
<path d="M18.1732 29.5866L15.9998 24.48C18.0932 23.7066 20.0532 22.6666 21.8665 21.4533L18.1732 29.5866ZM8.1865 16.6666L3.07983 14.4933L11.2132 10.8C9.99983 12.6133 8.95983 14.5733 8.1865 16.6666ZM29.4798 3.18663C29.4798 3.18663 22.8798 0.358629 15.3332 7.90663C12.4132 10.8266 10.6665 14.04 9.53317 16.8533C9.15983 17.8533 9.41317 18.9466 10.1465 19.6933L12.9865 22.52C13.7198 23.2666 14.8132 23.5066 15.8132 23.1333C18.6665 22.04 21.8398 20.2533 24.7598 17.3333C32.3065 9.78663 29.4798 3.18663 29.4798 3.18663ZM20.0532 12.6133C19.0132 11.5733 19.0132 9.87996 20.0532 8.83996C21.0932 7.79996 22.7865 7.79996 23.8265 8.83996C24.8532 9.87996 24.8665 11.5733 23.8265 12.6133C22.7865 13.6533 21.0932 13.6533 20.0532 12.6133ZM8.9865 29.3333L13.8398 24.48C13.3865 24.36 12.9465 24.16 12.5465 23.88L7.1065 29.3333H8.9865ZM3.33317 29.3333H5.21317L11.5732 22.9866L9.67983 21.1066L3.33317 27.4533V29.3333ZM3.33317 25.56L8.7865 20.12C8.5065 19.72 8.3065 19.2933 8.1865 18.8266L3.33317 23.68V25.56Z" fill="white"/>
</svg>
