<svg width="1440" height="700" viewBox="0 0 1440 700" fill="none" xmlns="http://www.w3.org/2000/svg">
<mask id="mask0_172_3" style="mask-type:alpha" maskUnits="userSpaceOnUse" x="0" y="0" width="1440" height="700">
<rect width="1440" height="700" fill="url(#paint0_radial_172_3)"/>
</mask>
<g mask="url(#mask0_172_3)">
<rect x="-30.5" y="2.0351" width="114.385" height="141.303" stroke="white"/>
<rect x="84.8845" y="2.0351" width="114.385" height="141.303" stroke="white"/>
<rect x="200.269" y="2.0351" width="114.385" height="141.303" stroke="white"/>
<rect x="315.654" y="2.0351" width="114.385" height="141.303" stroke="white"/>
<rect x="431.039" y="2.0351" width="114.385" height="141.303" stroke="white"/>
<rect x="546.423" y="2.0351" width="114.385" height="141.303" stroke="white"/>
<rect x="661.808" y="2.0351" width="114.385" height="141.303" stroke="white"/>
<rect x="777.192" y="2.0351" width="114.385" height="141.303" stroke="white"/>
<rect x="892.577" y="2.0351" width="114.385" height="141.303" stroke="white"/>
<rect x="1007.96" y="2.0351" width="114.385" height="141.303" stroke="white"/>
<rect x="1123.35" y="2.0351" width="114.385" height="141.303" stroke="white"/>
<rect x="1238.73" y="2.0351" width="114.385" height="141.303" stroke="white"/>
<rect x="1354.12" y="2.0351" width="114.385" height="141.303" stroke="white"/>
<rect x="-30.5" y="144.338" width="114.385" height="141.303" stroke="white"/>
<rect x="84.8845" y="144.338" width="114.385" height="141.303" stroke="white"/>
<rect x="200.269" y="144.338" width="114.385" height="141.303" stroke="white"/>
<rect x="315.654" y="144.338" width="114.385" height="141.303" stroke="white"/>
<rect x="431.039" y="144.338" width="114.385" height="141.303" stroke="white"/>
<rect x="546.423" y="144.338" width="114.385" height="141.303" stroke="white"/>
<rect x="661.808" y="144.338" width="114.385" height="141.303" stroke="white"/>
<rect x="777.192" y="144.338" width="114.385" height="141.303" stroke="white"/>
<rect x="892.577" y="144.338" width="114.385" height="141.303" stroke="white"/>
<rect x="1007.96" y="144.338" width="114.385" height="141.303" stroke="white"/>
<rect x="1123.35" y="144.338" width="114.385" height="141.303" stroke="white"/>
<rect x="1238.73" y="144.338" width="114.385" height="141.303" stroke="white"/>
<rect x="1354.12" y="144.338" width="114.385" height="141.303" stroke="white"/>
<rect x="-30.5" y="286.64" width="114.385" height="141.303" stroke="white"/>
<rect x="84.8845" y="286.64" width="114.385" height="141.303" stroke="white"/>
<rect x="200.269" y="286.64" width="114.385" height="141.303" stroke="white"/>
<rect x="315.654" y="286.64" width="114.385" height="141.303" stroke="white"/>
<rect x="431.039" y="286.64" width="114.385" height="141.303" stroke="white"/>
<rect x="546.423" y="286.64" width="114.385" height="141.303" stroke="white"/>
<rect x="661.808" y="286.64" width="114.385" height="141.303" stroke="white"/>
<rect x="777.192" y="286.64" width="114.385" height="141.303" stroke="white"/>
<rect x="892.577" y="286.64" width="114.385" height="141.303" stroke="white"/>
<rect x="1007.96" y="286.64" width="114.385" height="141.303" stroke="white"/>
<rect x="1123.35" y="286.64" width="114.385" height="141.303" stroke="white"/>
<rect x="1238.73" y="286.64" width="114.385" height="141.303" stroke="white"/>
<rect x="1354.12" y="286.64" width="114.385" height="141.303" stroke="white"/>
<rect x="-30.5" y="428.943" width="114.385" height="141.303" stroke="white"/>
<rect x="84.8845" y="428.943" width="114.385" height="141.303" stroke="white"/>
<rect x="200.269" y="428.943" width="114.385" height="141.303" stroke="white"/>
<rect x="315.654" y="428.943" width="114.385" height="141.303" stroke="white"/>
<rect x="431.039" y="428.943" width="114.385" height="141.303" stroke="white"/>
<rect x="546.423" y="428.943" width="114.385" height="141.303" stroke="white"/>
<rect x="661.808" y="428.943" width="114.385" height="141.303" stroke="white"/>
<rect x="777.192" y="428.943" width="114.385" height="141.303" stroke="white"/>
<rect x="892.577" y="428.943" width="114.385" height="141.303" stroke="white"/>
<rect x="1007.96" y="428.943" width="114.385" height="141.303" stroke="white"/>
<rect x="1123.35" y="428.943" width="114.385" height="141.303" stroke="white"/>
<rect x="1238.73" y="428.943" width="114.385" height="141.303" stroke="white"/>
<rect x="1354.12" y="428.943" width="114.385" height="141.303" stroke="white"/>
<rect x="-30.5" y="571.246" width="114.385" height="141.303" stroke="white"/>
<rect x="84.8845" y="571.246" width="114.385" height="141.303" stroke="white"/>
<rect x="200.269" y="571.246" width="114.385" height="141.303" stroke="white"/>
<rect x="315.654" y="571.246" width="114.385" height="141.303" stroke="white"/>
<rect x="431.039" y="571.246" width="114.385" height="141.303" stroke="white"/>
<rect x="546.423" y="571.246" width="114.385" height="141.303" stroke="white"/>
<rect x="661.808" y="571.246" width="114.385" height="141.303" stroke="white"/>
<rect x="777.192" y="571.246" width="114.385" height="141.303" stroke="white"/>
<rect x="892.577" y="571.246" width="114.385" height="141.303" stroke="white"/>
<rect x="1007.96" y="571.246" width="114.385" height="141.303" stroke="white"/>
<rect x="1123.35" y="571.246" width="114.385" height="141.303" stroke="white"/>
<rect x="1238.73" y="571.246" width="114.385" height="141.303" stroke="white"/>
<rect x="1354.12" y="571.246" width="114.385" height="141.303" stroke="white"/>
<path d="M10.6712 7H9.26207C9.17874 6.5947 9.03291 6.23864 8.82457 5.93182C8.62003 5.625 8.37003 5.36742 8.07457 5.15909C7.78291 4.94697 7.45904 4.78788 7.10298 4.68182C6.74692 4.57576 6.37571 4.52273 5.98935 4.52273C5.2848 4.52273 4.64654 4.70076 4.07457 5.05682C3.50639 5.41288 3.05374 5.9375 2.71662 6.63068C2.38329 7.32386 2.21662 8.17424 2.21662 9.18182C2.21662 10.1894 2.38329 11.0398 2.71662 11.733C3.05374 12.4261 3.50639 12.9508 4.07457 13.3068C4.64654 13.6629 5.2848 13.8409 5.98935 13.8409C6.37571 13.8409 6.74692 13.7879 7.10298 13.6818C7.45904 13.5758 7.78291 13.4186 8.07457 13.2102C8.37003 12.9981 8.62003 12.7386 8.82457 12.4318C9.03291 12.1212 9.17874 11.7652 9.26207 11.3636H10.6712C10.5651 11.9583 10.3719 12.4905 10.0916 12.9602C9.81132 13.4299 9.46283 13.8295 9.04617 14.1591C8.6295 14.4848 8.1617 14.733 7.64276 14.9034C7.1276 15.0739 6.57647 15.1591 5.98935 15.1591C4.99692 15.1591 4.11435 14.9167 3.34162 14.4318C2.56889 13.947 1.96094 13.2576 1.51776 12.3636C1.07457 11.4697 0.852983 10.4091 0.852983 9.18182C0.852983 7.95455 1.07457 6.89394 1.51776 6C1.96094 5.10606 2.56889 4.41667 3.34162 3.93182C4.11435 3.44697 4.99692 3.20455 5.98935 3.20455C6.57647 3.20455 7.1276 3.28977 7.64276 3.46023C8.1617 3.63068 8.6295 3.88068 9.04617 4.21023C9.46283 4.53598 9.81132 4.93371 10.0916 5.40341C10.3719 5.86932 10.5651 6.40151 10.6712 7ZM14.1072 9.75V15H12.7663V3.36364H14.1072V7.63636H14.2209C14.4254 7.18561 14.7322 6.82765 15.1413 6.5625C15.5542 6.29356 16.1035 6.15909 16.7891 6.15909C17.3838 6.15909 17.9046 6.27841 18.3516 6.51705C18.7985 6.75189 19.1451 7.11364 19.3913 7.60227C19.6413 8.08712 19.7663 8.70455 19.7663 9.45455V15H18.4254V9.54545C18.4254 8.85227 18.2455 8.31629 17.8857 7.9375C17.5296 7.55492 17.0353 7.36364 16.4027 7.36364C15.9633 7.36364 15.5694 7.45644 15.2209 7.64205C14.8762 7.82765 14.6035 8.09848 14.4027 8.45455C14.2057 8.81061 14.1072 9.24242 14.1072 9.75ZM25.8786 15.1818C25.0376 15.1818 24.3123 14.9962 23.7024 14.625C23.0964 14.25 22.6286 13.7273 22.299 13.0568C21.9732 12.3826 21.8104 11.5985 21.8104 10.7045C21.8104 9.81061 21.9732 9.02273 22.299 8.34091C22.6286 7.6553 23.0869 7.12121 23.674 6.73864C24.2649 6.35227 24.9543 6.15909 25.7422 6.15909C26.1967 6.15909 26.6456 6.23485 27.0888 6.38636C27.532 6.53788 27.9354 6.78409 28.299 7.125C28.6626 7.46212 28.9524 7.90909 29.1683 8.46591C29.3842 9.02273 29.4922 9.70833 29.4922 10.5227V11.0909H22.7649V9.93182H28.1286C28.1286 9.43939 28.0301 9 27.8331 8.61364C27.6399 8.22727 27.3634 7.92235 27.0036 7.69886C26.6475 7.47538 26.227 7.36364 25.7422 7.36364C25.2081 7.36364 24.746 7.49621 24.3558 7.76136C23.9695 8.02273 23.6721 8.36364 23.4638 8.78409C23.2554 9.20455 23.1513 9.6553 23.1513 10.1364V10.9091C23.1513 11.5682 23.2649 12.1269 23.4922 12.5852C23.7232 13.0398 24.0433 13.3864 24.4524 13.625C24.8615 13.8598 25.3369 13.9773 25.8786 13.9773C26.2308 13.9773 26.549 13.928 26.8331 13.8295C27.121 13.7273 27.3691 13.5758 27.5774 13.375C27.7857 13.1705 27.9467 12.9167 28.0604 12.6136L29.3558 12.9773C29.2195 13.4167 28.9903 13.803 28.6683 14.1364C28.3464 14.4659 27.9486 14.7235 27.4751 14.9091C27.0017 15.0909 26.4695 15.1818 25.8786 15.1818ZM35.0774 15.1818C34.2592 15.1818 33.5547 14.9886 32.9638 14.6023C32.3729 14.2159 31.9183 13.6837 31.6001 13.0057C31.282 12.3277 31.1229 11.553 31.1229 10.6818C31.1229 9.79545 31.2857 9.01326 31.6115 8.33523C31.9411 7.65341 32.3994 7.12121 32.9865 6.73864C33.5774 6.35227 34.2668 6.15909 35.0547 6.15909C35.6683 6.15909 36.2214 6.27273 36.7138 6.5C37.2062 6.72727 37.6096 7.04545 37.924 7.45455C38.2384 7.86364 38.4335 8.34091 38.5092 8.88636H37.1683C37.0661 8.48864 36.8388 8.13636 36.4865 7.82955C36.138 7.51894 35.6683 7.36364 35.0774 7.36364C34.5547 7.36364 34.0964 7.5 33.7024 7.77273C33.3123 8.04167 33.0073 8.42235 32.7876 8.91477C32.5717 9.40341 32.4638 9.97727 32.4638 10.6364C32.4638 11.3106 32.5698 11.8977 32.782 12.3977C32.9979 12.8977 33.3009 13.286 33.6911 13.5625C34.085 13.839 34.5471 13.9773 35.0774 13.9773C35.4259 13.9773 35.7422 13.9167 36.0263 13.7955C36.3104 13.6742 36.5509 13.5 36.7479 13.2727C36.9448 13.0455 37.085 12.7727 37.1683 12.4545H38.5092C38.4335 12.9697 38.246 13.4337 37.9467 13.8466C37.6513 14.2557 37.2592 14.5814 36.7706 14.8239C36.2857 15.0625 35.7214 15.1818 35.0774 15.1818ZM41.7195 11.8182L41.6967 10.1591H41.9695L45.7876 6.27273H47.4467L43.3786 10.3864H43.2649L41.7195 11.8182ZM40.4695 15V3.36364H41.8104V15H40.4695ZM46.0149 15L42.6058 10.6818L43.5604 9.75L47.7195 15H46.0149ZM57.218 15.1818C56.4302 15.1818 55.7389 14.9943 55.1442 14.6193C54.5533 14.2443 54.0911 13.7197 53.7578 13.0455C53.4283 12.3712 53.2635 11.5833 53.2635 10.6818C53.2635 9.77273 53.4283 8.97917 53.7578 8.30114C54.0911 7.62311 54.5533 7.09659 55.1442 6.72159C55.7389 6.34659 56.4302 6.15909 57.218 6.15909C58.0059 6.15909 58.6953 6.34659 59.2862 6.72159C59.8809 7.09659 60.343 7.62311 60.6726 8.30114C61.0059 8.97917 61.1726 9.77273 61.1726 10.6818C61.1726 11.5833 61.0059 12.3712 60.6726 13.0455C60.343 13.7197 59.8809 14.2443 59.2862 14.6193C58.6953 14.9943 58.0059 15.1818 57.218 15.1818ZM57.218 13.9773C57.8165 13.9773 58.3089 13.8239 58.6953 13.517C59.0817 13.2102 59.3677 12.8068 59.5533 12.3068C59.7389 11.8068 59.8317 11.2652 59.8317 10.6818C59.8317 10.0985 59.7389 9.55492 59.5533 9.05114C59.3677 8.54735 59.0817 8.14015 58.6953 7.82955C58.3089 7.51894 57.8165 7.36364 57.218 7.36364C56.6196 7.36364 56.1271 7.51894 55.7408 7.82955C55.3544 8.14015 55.0684 8.54735 54.8828 9.05114C54.6972 9.55492 54.6044 10.0985 54.6044 10.6818C54.6044 11.2652 54.6972 11.8068 54.8828 12.3068C55.0684 12.8068 55.3544 13.2102 55.7408 13.517C56.1271 13.8239 56.6196 13.9773 57.218 13.9773ZM68.7195 11.4318V6.27273H70.0604V15H68.7195V13.5227H68.6286C68.424 13.9659 68.1058 14.3428 67.674 14.6534C67.2422 14.9602 66.6967 15.1136 66.0376 15.1136C65.4922 15.1136 65.0073 14.9943 64.5831 14.7557C64.1589 14.5133 63.8255 14.1496 63.5831 13.6648C63.3407 13.1761 63.2195 12.5606 63.2195 11.8182V6.27273H64.5604V11.7273C64.5604 12.3636 64.7384 12.8712 65.0945 13.25C65.4543 13.6288 65.9126 13.8182 66.4695 13.8182C66.8028 13.8182 67.1418 13.733 67.4865 13.5625C67.835 13.392 68.1267 13.1307 68.3615 12.7784C68.6001 12.4261 68.7195 11.9773 68.7195 11.4318ZM76.3118 6.27273V7.40909H71.7891V6.27273H76.3118ZM73.1072 4.18182H74.4482V12.5C74.4482 12.8788 74.5031 13.1629 74.6129 13.3523C74.7266 13.5379 74.8705 13.6629 75.0447 13.7273C75.2228 13.7879 75.4103 13.8182 75.6072 13.8182C75.755 13.8182 75.8762 13.8106 75.9709 13.7955C76.0656 13.7765 76.1413 13.7614 76.1982 13.75L76.4709 14.9545C76.38 14.9886 76.2531 15.0227 76.0902 15.0568C75.9273 15.0947 75.7209 15.1136 75.4709 15.1136C75.0921 15.1136 74.7209 15.0322 74.3572 14.8693C73.9974 14.7064 73.6982 14.4583 73.4595 14.125C73.2247 13.7917 73.1072 13.3712 73.1072 12.8636V4.18182ZM82.8288 15V6.27273H84.1243V7.63636H84.2379C84.4197 7.17045 84.7133 6.80871 85.1186 6.55114C85.5239 6.28977 86.0107 6.15909 86.5788 6.15909C87.1546 6.15909 87.6338 6.28977 88.0163 6.55114C88.4027 6.80871 88.7038 7.17045 88.9197 7.63636H89.0107C89.2341 7.18561 89.5694 6.82765 90.0163 6.5625C90.4633 6.29356 90.9993 6.15909 91.6243 6.15909C92.4046 6.15909 93.0429 6.40341 93.5391 6.89205C94.0353 7.37689 94.2834 8.13258 94.2834 9.15909V15H92.9425V9.15909C92.9425 8.51515 92.7663 8.05492 92.4141 7.77841C92.0618 7.50189 91.647 7.36364 91.1697 7.36364C90.5561 7.36364 90.0807 7.54924 89.7436 7.92045C89.4065 8.28788 89.2379 8.75379 89.2379 9.31818V15H87.8743V9.02273C87.8743 8.52652 87.7133 8.12689 87.3913 7.82386C87.0694 7.51705 86.6546 7.36364 86.147 7.36364C85.7985 7.36364 85.4728 7.45644 85.1697 7.64205C84.8705 7.82765 84.6281 8.08523 84.4425 8.41477C84.2607 8.74053 84.1697 9.11742 84.1697 9.54545V15H82.8288ZM97.2862 18.2727C97.0589 18.2727 96.8563 18.2538 96.6783 18.2159C96.5002 18.1818 96.3771 18.1477 96.3089 18.1136L96.6499 16.9318C96.9756 17.0152 97.2635 17.0455 97.5135 17.0227C97.7635 17 97.9851 16.8883 98.1783 16.6875C98.3752 16.4905 98.5552 16.1705 98.718 15.7273L98.968 15.0455L95.7408 6.27273H97.1953L99.6044 13.2273H99.6953L102.104 6.27273H103.559L99.8544 16.2727C99.6877 16.7235 99.4813 17.0966 99.2351 17.392C98.9889 17.6913 98.7029 17.9129 98.3771 18.0568C98.0552 18.2008 97.6915 18.2727 97.2862 18.2727Z" fill="#A8A8A8"/>
</g>
<defs>
<radialGradient id="paint0_radial_172_3" cx="0" cy="0" r="1" gradientUnits="userSpaceOnUse" gradientTransform="translate(720 332.5) rotate(90) scale(367.5 756)">
<stop stop-color="#040404" stop-opacity="0.1"/>
<stop offset="0.225" stop-opacity="0.08"/>
<stop offset="0.47" stop-opacity="0.06"/>
<stop offset="0.705" stop-opacity="0.04"/>
<stop offset="0.86" stop-opacity="0.0232692"/>
<stop offset="1" stop-opacity="0.01"/>
<stop offset="1" stop-opacity="0"/>
</radialGradient>
</defs>
</svg>
